Music_Celadon_Ch1:: ; b6c7 (2:76c7)
	tempo 0, 220
	stereopanning 119
	duty 1
	notetype 12, 10, 5
	vibrato 0, 2, 2
	rest 4

Music_Celadon_Ch1_branch0::
	rest 16
	rest 16
	rest 12
	octave 4
	note D#, 2
	note C#, 2
	note C_, 1
	rest 1
	octave 3
	note G#, 1
	rest 1
	note F#, 1
	rest 1
	note F_, 2
	note F#, 2
	note G#, 1
	rest 1
	octave 4
	note C_, 1
	rest 1
	octave 3
	note G#, 1
	rest 1
	note F_, 1
	rest 1
	octave 4
	note C#, 2
	note C_, 2
	octave 3
	note G#, 1
	rest 1
	octave 4
	note C_, 1
	rest 1
	octave 3
	note G#, 1
	rest 1
	note F#, 1
	rest 1
	note F_, 2
	note F#, 2
	note G#, 1
	rest 1
	octave 4
	note C_, 1
	rest 1
	octave 3
	note G#, 1
	rest 1
	octave 4
	note C_, 1
	rest 1
	note C#, 2
	note D#, 2
	note C#, 1
	rest 1
	note C_, 1
	rest 1
	octave 3
	note G#, 1
	rest 5
	note F#, 1
	rest 1
	note G#, 1
	rest 1
	octave 4
	note C_, 1
	rest 1
	octave 3
	note G#, 1
	rest 3
	octave 4
	note C#, 1
	rest 1
	note C_, 1
	rest 1
	octave 3
	note A#, 1
	rest 1
	octave 4
	note C_, 1
	rest 1
	octave 3
	note G#, 1
	rest 5
	note F#, 1
	rest 1
	note G#, 1
	rest 1
	octave 4
	note C_, 1
	rest 1
	octave 3
	note G#, 1
	rest 3
	octave 4
	note C#, 1
	note D_, 1
	note D#, 1
	note E_, 1
	note C#, 1
	note C_, 1
	octave 3
	note B_, 1
	rest 1
	note G#, 1
	rest 9
	octave 4
	note C_, 1
	rest 1
	octave 3
	note G#, 1
	rest 1
	note F_, 1
	rest 7
	octave 4
	note C_, 1
	rest 1
	octave 3
	note G#, 1
	rest 9
	octave 4
	note C_, 1
	rest 1
	octave 3
	note G#, 1
	rest 9
	loopchannel 0, Music_Celadon_Ch1_branch0

Music_Celadon_Ch2:: ; b73a (2:773a)
	duty 2
	vibrato 0, 3, 2
	notetype 12, 12, 3
	rest 4

Music_Celadon_Ch2_branch0::
	octave 3
	note G#, 4
	note D#, 1
	rest 3
	note D#, 2
	note F_, 2
	note G#, 4
	note C#, 1
	rest 3
	note G#, 2
	note F_, 2
	note G#, 4
	note D#, 1
	rest 3
	note D#, 2
	note F_, 1
	rest 1
	note G#, 1
	rest 3
	note G#, 1
	rest 3
	octave 4
	note C_, 2
	octave 3
	note A#, 2
	note G#, 1
	rest 1
	note F_, 1
	rest 1
	note D#, 1
	rest 1
	note C#, 2
	note D#, 2
	note F_, 1
	rest 1
	note G#, 1
	rest 1
	note F_, 1
	rest 1
	note C#, 1
	rest 1
	note A#, 2
	note G#, 2
	note F_, 1
	rest 1
	note G#, 1
	rest 1
	note F_, 1
	rest 1
	note D#, 1
	rest 1
	note C#, 2
	note D#, 2
	note F_, 1
	rest 1
	note G#, 1
	rest 1
	note F_, 1
	rest 1
	note G#, 1
	rest 1
	note A#, 2
	octave 4
	note C_, 2
	octave 3
	note A#, 1
	note A_, 1
	note G#, 1
	octave 2
	note G#, 1
	octave 3
	note F_, 1
	octave 2
	note A_, 1
	octave 3
	note D#, 1
	note C_, 1
	note C#, 1
	rest 1
	note D#, 1
	rest 1
	note F_, 1
	rest 1
	note G#, 1
	octave 2
	note A#, 1
	octave 3
	note F_, 1
	octave 2
	note A_, 1
	octave 3
	note C#, 1
	octave 2
	note A#, 1
	octave 3
	note A#, 1
	rest 1
	note G#, 1
	rest 1
	note F_, 1
	note E_, 1
	note G#, 1
	octave 2
	note G#, 1
	octave 3
	note F_, 1
	octave 2
	note A_, 1
	octave 3
	note D#, 1
	note C_, 1
	note C#, 1
	rest 1
	note D#, 1
	rest 1
	note F_, 1
	rest 1
	note G#, 1
	note C#, 1
	note F_, 1
	octave 2
	note A#, 1
	octave 3
	note G#, 1
	note F#, 1
	note A#, 1
	note B_, 1
	octave 4
	note C_, 1
	note C#, 1
	octave 3
	note A#, 1
	note A_, 1
	note G#, 1
	octave 2
	note G#, 1
	octave 3
	note F_, 1
	octave 2
	note A_, 1
	octave 3
	note D#, 1
	note C_, 1
	note C#, 1
	note D_, 1
	note D#, 1
	note C#, 1
	note F_, 1
	note A#, 1
	note G#, 1
	octave 2
	note A#, 1
	octave 3
	note F_, 1
	octave 2
	note A_, 1
	octave 3
	note C#, 1
	octave 2
	note A#, 1
	octave 3
	note A#, 1
	octave 4
	note C_, 1
	octave 3
	note G#, 1
	note A#, 1
	note F_, 1
	note E_, 1
	note G#, 1
	octave 2
	note G#, 1
	octave 3
	note F_, 1
	octave 2
	note A_, 1
	octave 3
	note D#, 1
	note C_, 1
	note C#, 1
	note D_, 1
	note D#, 1
	note C#, 1
	note F_, 1
	note A#, 1
	note G#, 1
	note C#, 1
	note F_, 1
	octave 2
	note A#, 1
	octave 3
	note G#, 1
	note F#, 1
	note A#, 1
	note B_, 1
	octave 4
	note C_, 1
	note C#, 1
	octave 3
	note A#, 1
	note A_, 1
	loopchannel 0, Music_Celadon_Ch2_branch0

Music_Celadon_Ch3:: ; b7b5 (2:77b5)
	notetype 12, 1, 2

Music_Celadon_Ch3_branch0::
	octave 2
	note G#, 2
	note A#, 2
	octave 3
	note C#, 8
	octave 2
	note G#, 2
	note A#, 2
	octave 3
	note D#, 8
	octave 2
	note G#, 2
	note A#, 2
	octave 3
	note C#, 8
	note F_, 2
	note F#, 2
	note G#, 8
	loopchannel 0, Music_Celadon_Ch3_branch0

Music_Celadon_Ch4::
	dspeed 12
	rest 4

Music_Celadon_Ch4_branch0::
	dnote 4, cymbal2
	dnote 4, cymbal1
	dnote 4, cymbal1

	dnote 4, cymbal2
	dnote 4, cymbal1
	dnote 4, cymbal1

	dnote 4, cymbal2
	dnote 4, cymbal1
	dnote 4, cymbal1

	dnote 4, cymbal2
	dnote 4, cymbal1
	dnote 4, cymbal1

	dnote 2, cymbal2
	dnote 2, cymbal1
	dnote 2, cymbal1
	dnote 6, cymbal1

	dnote 2, cymbal2
	dnote 2, cymbal1
	dnote 2, cymbal1
	dnote 6, cymbal1

	dnote 2, cymbal2
	dnote 2, cymbal1
	dnote 2, cymbal1
	dnote 6, cymbal1

	dnote 2, cymbal2
	dnote 2, cymbal1
	dnote 2, cymbal1
	dnote 6, cymbal1

	callchannel Celadondrumloop
	callchannel Celadondrumloop
	callchannel Celadondrumloop
	callchannel Celadondrumloop
	callchannel Celadondrumloop
	callchannel Celadondrumloop
	callchannel Celadondrumloop
	callchannel Celadondrumloop

	loopchannel 0, Music_Celadon_Ch4_branch0

Celadondrumloop::
	dnote 2, cymbal3
	dnote 1, cymbal1
	dnote 1, cymbal1
	dnote 4, cymbal1
	dnote 2, cymbal1
	dnote 2, cymbal1
	endchannel

