Music_Cinnabar_Ch1:: ; b86d (2:786d)
	tempo 0, 105
	stereopanning 119
	duty 2
	vibrato 12, 2, 3
	notetype 12, 10, 6
	rest 16
	rest 16
	rest 12

Music_Anna_Ch1_b0
	rest 4
	rest 16
	rest 16
	rest 16
	rest 16
	rest 16
	rest 16
	rest 16
	rest 12
	octave 3
	note C#, 2
	note D#, 2
	note F_, 4
	note F#, 2
	note G#, 2
	note A#, 4
	octave 4
	note C_, 2
	note C#, 2
	note D#, 6
	notetype 12, 12, 6
	vibrato 0, 5, 2
	note G#, 4
	rest 2
	notetype 12, 10, 6
	vibrato 12, 2, 3
	octave 3
	note C_, 2
	note C#, 2
	note D#, 4
	note F_, 2
	note F#, 2
	note G#, 4
	note A#, 2
	octave 4
	note C_, 2
	note C#, 6
	notetype 12, 12, 6
	vibrato 0, 5, 2
	note G#, 4
	rest 2
	notetype 12, 10, 6
	vibrato 12, 2, 3
	note C#, 2
	octave 3
	note A#, 2
	note F#, 4
	octave 4
	note C_, 2
	octave 3
	note G#, 2
	note F_, 4
	note A#, 2
	note F#, 2
	note D#, 6
	octave 4
	notetype 12, 12, 6
	vibrato 0, 5, 2
	note G#, 4
	rest 2
	notetype 12, 10, 6
	vibrato 12, 2, 3
	note C_, 2
	octave 3
	note G#, 2
	note F_, 4
	note A#, 2
	note F#, 2
	note D#, 4
	note G#, 2
	note F#, 2
	note F_, 8
	note F#, 8
	note G#, 14
	note F#, 2
	note G#, 2
	octave 4
	note C#, 2
	octave 3
	note G#, 14
	note F#, 2
	note G#, 2
	octave 4
	note C#, 2
	octave 3
	note A#, 4
	octave 4
	note C#, 2
	note C_, 2
	octave 3
	note A#, 4
	note G#, 2
	note B_, 2
	note F#, 4
	note G#, 14
	note F#, 2
	note G#, 2
	octave 4
	note C#, 2
	octave 3
	note A#, 14
	note G#, 2
	note A#, 2
	octave 4
	note D#, 2
	note C#, 4
	octave 3
	note A#, 2
	note E_, 2
	note G#, 4
	note F#, 2
	note A#, 2
	note F#, 4
	note G#, 14
	note F#, 2
	note G#, 2
	octave 4
	note C#, 2
	note G#, 2
	note F#, 2
	note C_, 2
	note F_, 2
	note D#, 2
	note C_, 2
	note G#, 4
	note D#, 4
	octave 3
	note G#, 1
	note F#, 1
	note F_, 1
	note D#, 1
	note F_, 1
	note F#, 1
	note G#, 1
	note A#, 1
	octave 4
	note C_, 1
	note C#, 1
	note D#, 1
	note F_, 1
	note D#, 1
	note C#, 1
	note C_, 1
	octave 3
	note A#, 1
	octave 4
	note F#, 2
	note D#, 2
	note F#, 2
	note D#, 2
	note F#, 2
	note D#, 2
	note C_, 2
	octave 3
	note G#, 2
	note F#, 1
	note F_, 1
	note D#, 1
	note C#, 1
	note D#, 1
	note F_, 1
	note F#, 1
	note G#, 1
	note A#, 1
	octave 4
	note C_, 1
	note C#, 1
	note D#, 1
	note C#, 1
	note C_, 1
	octave 3
	note A#, 1
	note G#, 1
	octave 4
	note F_, 2
	note C#, 2
	note F_, 2
	note C#, 2
	note F_, 2
	note C#, 2
	octave 3
	note A#, 2
	note G#, 2
	octave 4
	note F_, 2
	note C#, 1
	note C_, 1
	octave 3
	note A#, 2
	octave 4
	note D#, 1
	note C#, 1
	note C_, 2
	octave 3
	note G#, 1
	octave 4
	note C_, 1
	note C#, 2
	octave 3
	note A#, 1
	note G#, 1
	note F#, 2
	note F_, 1
	note G#, 1
	note A#, 1
	octave 4
	note C_, 1
	note C#, 2
	note F_, 2
	note F#, 1
	note F_, 1
	note D#, 2
	note C_, 2
	note D#, 2
	note C_, 1
	octave 3
	note A#, 1
	note G#, 2
	octave 4
	note C#, 2
	octave 3
	note A#, 2
	note F#, 2
	octave 4
	note C_, 2
	octave 3
	note G#, 2
	octave 4
	note C#, 8
	rest 4
	loopchannel 0, Music_Anna_Ch1_b0


Music_Cinnabar_Ch2:: ; b8d4 (2:78d4)
	duty 2
	vibrato 10, 2, 3
	notetype 12, 12, 6

	rest 16
	rest 16
	rest 12

Music_Anna_Ch2_b0::
	octave 3
	note F_, 2
	note F#, 2

	callchannel Music_Anna_Ch2_b1

	octave 3
	note F_, 8
	rest 4
	note F_, 2
	note F#, 2

	callchannel Music_Anna_Ch2_b1

	octave 4
	note C#, 8
	octave 3
	note F#, 4
	octave 4
	note F#, 4
	rest 6
	note E_, 2
	note F#, 2
	note G#, 2
	rest 2
	note C#, 2
	rest 2
	note F#, 2
	note D#, 8
	note E_, 2
	note F#, 2
	note G#, 2
	octave 5
	note C#, 10
	rest 2
	note F#, 8
	octave 4
	note B_, 2
	rest 2
	note G#, 2
	note E_, 2
	note C#, 2
	rest 2
	note C#, 8
	note C#, 2
	rest 2
	note F#, 2
	note D#, 8
	note F#, 2
	note G#, 2
	note A#, 2
	octave 5
	note C#, 10
	rest 2
	note D#, 8
	note C#, 2
	rest 2
	octave 4
	note G#, 4
	octave 5
	note D#, 2
	note C#, 8
	rest 2
	octave 3
	note A#, 6
	note G#, 2
	note A#, 2
	octave 4
	note D#, 2
	note G#, 2
	note F#, 2
	note D#, 2
	note F_, 4
	note F#, 4
	note G#, 4
	note A#, 2
	octave 5
	note C_, 2
	note C#, 4
	note D#, 2
	note F_, 2
	note F#, 2
	note F_, 1
	note F_, 1
	note D#, 2
	note C#, 1
	note C#, 1
	note C_, 2
	octave 4
	note A#, 1
	note A#, 1
	note F#, 2
	note F_, 2
	note F#, 4
	note G#, 2
	note A#, 2
	octave 5
	note C_, 4
	note C#, 2
	note D#, 2
	note F_, 2
	note D#, 1
	note D#, 1
	note C#, 2
	note C_, 1
	note C_, 1
	octave 4
	note A#, 2
	note G#, 1
	note G#, 1
	note A#, 2
	octave 5
	note C#, 2
	octave 4
	note A#, 4
	octave 5
	note D#, 2
	note C_, 2
	octave 4
	note G#, 4
	octave 5
	note C#, 2
	octave 4
	note A#, 2
	note F#, 8
	rest 4
	octave 5
	note D#, 2
	note C_, 2
	octave 4
	note G#, 4
	octave 5
	note C#, 2
	octave 4
	note A#, 2
	note F#, 4
	octave 5
	note C_, 2
	octave 4
	note G#, 2
	octave 5
	note C#, 8
	rest 4
	loopchannel 0, Music_Anna_Ch2_b0

Music_Anna_Ch2_b1::
	octave 3
	note G#, 4
	note A#, 2
	octave 4
	note C_, 2
	note C#, 4
	note D#, 2
	note F_, 2
	note F#, 8
	rest 4
	octave 3
	note D#, 2
	note F_, 2
	note F#, 4
	note G#, 2
	note A#, 2
	octave 4
	note C_, 4
	note C#, 2
	note D#, 2
	note F_, 8
	rest 4
	note F_, 2
	note C#, 2
	octave 3
	note A#, 4
	octave 4
	note D#, 2
	note C_, 2
	octave 3
	note G#, 4
	octave 4
	note C#, 2
	octave 3
	note A#, 2
	note F#, 8
	rest 4
	octave 4
	note D#, 2
	note C_, 2
	octave 3
	note G#, 4
	octave 4
	note C#, 2
	octave 3
	note A#, 2
	note F#, 4
	octave 4
	note C_, 2
	octave 3
	note G#, 2
	endchannel


Music_Cinnabar_Ch3:: ; b93d (2:793d)
	notetype 12, 1, 2

	rest 16
	octave 3
	note C#, 6
	note C#, 2
	octave 2
	note G#, 2
	octave 3
	note C#, 2
	rest 2
	note F_, 2
	rest 4
	note C#, 2
	octave 2
	note G#, 2
	octave 3
	note C#, 8

Music_Cinnabar_branch_b93f::
	octave 3
	note C#, 6
	note G#, 6
	octave 2
	note G#, 4
	octave 3
	note D#, 6
	note G#, 6
	octave 2
	note G#, 4
	octave 3
	note D#, 6
	note G#, 6
	octave 2
	note G#, 4
	octave 3
	note C#, 6
	note G#, 6
	octave 2
	note G#, 4
	octave 3
	note C#, 6
	note G#, 6
	octave 2
	note G#, 4
	octave 3
	note D#, 6
	note G#, 6
	octave 2
	note G#, 4
	octave 3
	note D#, 6
	note G#, 6
	octave 2
	note G#, 4
	octave 3
	note C#, 6
	note G#, 6
	octave 2
	note G#, 4
	octave 3
	note C#, 6
	note G#, 6
	octave 2
	note G#, 2
	octave 3
	note C#, 2
	note D#, 6
	note G#, 6
	octave 2
	note G#, 4
	octave 3
	note D#, 6
	note G#, 6
	octave 2
	note G#, 2
	octave 3
	note C_, 2
	note C#, 6
	note G#, 6
	octave 2
	note G#, 4
	octave 3
	note C#, 6
	note G#, 6
	octave 2
	note G#, 2
	octave 3
	note C#, 2
	note D#, 6
	note G#, 6
	octave 2
	note G#, 4
	octave 3
	note D#, 6
	note G#, 6
	octave 2
	note G#, 2
	octave 3
	note C_, 2
	note C#, 8
	octave 2
	note F#, 4
	octave 3
	note F#, 4
	note C#, 2
	octave 2
	note G#, 4
	note C#, 2
	note E_, 2
	note G#, 2
	note F#, 4
	octave 3
	note F#, 4
	note C#, 2
	octave 2
	note G#, 4
	note C#, 2
	note E_, 2
	note G#, 2
	note F#, 4
	octave 3
	note F#, 4
	note F#, 2
	octave 2
	note F#, 4
	octave 3
	note F#, 2
	note C#, 4
	note E_, 4
	octave 2
	note B_, 4
	octave 3
	note C#, 2
	octave 2
	note G#, 4
	note C#, 2
	note G#, 4
	octave 3
	note C#, 4
	note C#, 4
	note F#, 2
	octave 2
	note F#, 4
	octave 3
	note F#, 2
	note C#, 4
	note E_, 4
	octave 2
	note B_, 4
	octave 3
	note C#, 2
	octave 2
	note G#, 4
	octave 3
	note C#, 2
	octave 2
	note E_, 2
	note G#, 2
	note F#, 4
	octave 3
	note F#, 4
	note C#, 2
	octave 2
	note G#, 4
	octave 3
	note C#, 2
	octave 2
	note E_, 2
	note G#, 2
	note F#, 4
	octave 3
	note F#, 4
	note C#, 2
	note C#, 2
	rest 2
	note C#, 2
	note C#, 8
	octave 2
	note F#, 4
	octave 3
	note C#, 2
	note G#, 4
	octave 4
	note C#, 2
	octave 3
	note G#, 4
	octave 2
	note G#, 2
	octave 3
	note C#, 2
	note D#, 2
	note G#, 4
	octave 4
	note D#, 2
	octave 3
	note G#, 2
	note D#, 2
	octave 2
	note G#, 4
	octave 3
	note D#, 2
	note G#, 4
	octave 4
	note D#, 2
	octave 3
	note G#, 4
	octave 2
	note G#, 2
	octave 3
	note C_, 2
	note C#, 2
	note G#, 4
	octave 4
	note C#, 2
	octave 3
	note G#, 2
	note D#, 2
	octave 2
	note G#, 4
	octave 3
	note C#, 2
	note G#, 4
	octave 4
	note C#, 2
	octave 3
	note G#, 4
	octave 2
	note G#, 2
	octave 3
	note C#, 2
	note D#, 2
	note G#, 4
	octave 4
	note D#, 2
	octave 3
	note G#, 2
	note D#, 2
	octave 2
	note G#, 4
	octave 3
	note D#, 6
	note G#, 6
	octave 2
	note G#, 2
	octave 3
	note C_, 2
	note C#, 2
	note G#, 2
	note D#, 2
	octave 2
	note G#, 2
	octave 3
	note C#, 2
	rest 6
	loopchannel 0, Music_Cinnabar_branch_b93f

Music_Cinnabar_Ch4::
	dspeed 12

	dnote 4, mutedsnare2
	dnote 2, mutedsnare2
	dnote 2, mutedsnare2
	dnote 4, mutedsnare2
	dnote 2, mutedsnare2
	dnote 2, mutedsnare2
	dnote 4, mutedsnare2
	dnote 2, mutedsnare2
	dnote 2, mutedsnare2
	dnote 4, mutedsnare2
	dnote 2, mutedsnare2
	dnote 2, mutedsnare2
	dnote 4, mutedsnare2
	dnote 2, mutedsnare2
	dnote 2, mutedsnare2
	dnote 4, mutedsnare2
	dnote 2, mutedsnare2
	dnote 2, mutedsnare2

Music_Cinnabar_Ch4_b0::
	callchannel Music_Cinnabar_Ch4_b3
	callchannel Music_Cinnabar_Ch4_b3
	callchannel Music_Cinnabar_Ch4_b3
	callchannel Music_Cinnabar_Ch4_b3
	callchannel Music_Cinnabar_Ch4_b2
	callchannel Music_Cinnabar_Ch4_b2
	callchannel Music_Cinnabar_Ch4_b1

	dnote 6, mutedsnare2
	dnote 6, mutedsnare2
	dnote 4, mutedsnare2
	dnote 2, mutedsnare2
	dnote 4, mutedsnare2
	dnote 2, mutedsnare2
	dnote 1, cymbal3
	dnote 1, cymbal3
	dnote 1, cymbal3
	dnote 1, cymbal3
	dnote 4, mutedsnare2

	callchannel Music_Cinnabar_Ch4_b2
	callchannel Music_Cinnabar_Ch4_b1
	callchannel Music_Cinnabar_Ch4_b1
	callchannel Music_Cinnabar_Ch4_b1
	callchannel Music_Cinnabar_Ch4_b1
	callchannel Music_Cinnabar_Ch4_b1
	callchannel Music_Cinnabar_Ch4_b1
	callchannel Music_Cinnabar_Ch4_b2
	callchannel Music_Cinnabar_Ch4_b2
	loopchannel 0, Music_Cinnabar_Ch4_b0
	
Music_Cinnabar_Ch4_b1::
	dnote 4, mutedsnare2
	rest 2
	dnote 2, mutedsnare2
	rest 4
	dnote 4, mutedsnare2
	rest 4
	dnote 4, mutedsnare2
	rest 2
	dnote 4, mutedsnare2
	rest 2
	endchannel

Music_Cinnabar_Ch4_b3::
	dnote 4, mutedsnare1
	rest 2
	dnote 2, mutedsnare1
	rest 4
	dnote 4, mutedsnare1
	rest 4
	dnote 4, mutedsnare1
	rest 2
	dnote 4, mutedsnare1
	rest 2
	endchannel

Music_Cinnabar_Ch4_b2::
	rest 4
	dnote 4, mutedsnare2
	rest 2
	dnote 4, mutedsnare2
	rest 2
	dnote 6, mutedsnare2
	dnote 6, mutedsnare2
	dnote 4, mutedsnare2
	endchannel

