Music_Cities1_branch_aa6f::
	tempo 0, 232
	loopchannel 0, Music_Cities1_Ch1_branch0

Music_Cities1_Ch1:: ; aa76 (2:6a76)
	tempo 0, 160

Music_Cities1_Ch1_branch0::
	stereopanning 119
	vibrato 16, 2, 2
	duty 1
	notetype 12, 12, 6

	octave 5
	note D#, 4
	rest 2
	note D#, 2
	note D#, 2
	octave 4
	note A#, 2
	octave 5
	note C#, 2
	octave 4
	note G#, 2
	note A#, 2
	note F#, 2
	note G#, 2
	note F_, 2
	note F#, 2
	note D#, 2
	note F_, 2
	note C#, 2
	note C_, 12
	note C#, 4
	note D#, 16
	rest 6
	note D#, 2
	note D#, 2
	octave 3
	note A#, 2
	octave 4
	note C#, 2
	octave 3
	note G#, 2
	note A#, 2
	note F#, 2
	note G#, 2
	note F_, 2
	note F#, 2
	note D#, 2
	note F_, 2
	note C#, 2
	note C_, 12
	note C#, 4
	note D#, 8
	rest 8
	octave 5
	note D#, 16
	note D#, 15
	rest 1
	note C_, 16
	note C_, 15
	rest 1
	loopchannel 0, Music_Cities1_Ch1_branch0
	endchannel

Music_Cities1_Ch2:: ; ab92 (2:6b92)
	duty 2
	vibrato 0, 0, 0
	notetype 12, 9, 5
	
Music_Cities1_Ch2_branch0::
	octave 1
	note D#, 1
	note F#, 1
	note A#, 1
	octave 2
	note C#, 1
	note D#, 1
	note F#, 1
	note G#, 1
	octave 3
	note C#, 1
	octave 2
	note F#, 1
	note G#, 1
	octave 3
	note C#, 1
	note D#, 1
	note F#, 1
	note G#, 1
	note A#, 1
	octave 4
	note C#, 1
	octave 1
	note D#, 1
	note F#, 1
	note A#, 1
	octave 2
	note C#, 1
	note D#, 1
	note F#, 1
	note G#, 1
	octave 3
	note C#, 1
	octave 2
	note F#, 1
	note G#, 1
	octave 3
	note C#, 1
	note D#, 1
	note F#, 1
	note G#, 1
	note A#, 1
	octave 4
	note C#, 1
	octave 1
	note G#, 1
	octave 2
	note C_, 1
	note D#, 1
	note C_, 1
	note D#, 1
	note G#, 1
	octave 3
	note C_, 1
	note D#, 1
	rest 1
	octave 2
	note C_, 1
	note D#, 1
	note G#, 1
	octave 3
	note C_, 1
	note D#, 1
	note F#, 1
	note G#, 1
	octave 1
	note G#, 1
	octave 2
	note C_, 1
	note D#, 1
	note C_, 1
	note D#, 1
	note G#, 1
	octave 3
	note C_, 1
	note D#, 1
	rest 1
	octave 2
	note C_, 1
	note D#, 1
	note G#, 1
	octave 3
	note C_, 1
	note D#, 1
	note F#, 1
	note G#, 1
	octave 1
	note D#, 1
	note F#, 1
	note A#, 1
	octave 2
	note C#, 1
	note D#, 1
	note F#, 1
	note G#, 1
	octave 3
	note C#, 1
	octave 2
	note F#, 1
	note G#, 1
	octave 3
	note C#, 1
	note D#, 1
	note F#, 1
	note G#, 1
	note A#, 1
	octave 4
	note C#, 1
	octave 1
	note D#, 1
	note F#, 1
	note A#, 1
	octave 2
	note C#, 1
	note D#, 1
	note F#, 1
	note G#, 1
	octave 3
	note C#, 1
	octave 2
	note F#, 1
	note G#, 1
	octave 3
	note C#, 1
	note D#, 1
	note F#, 1
	note G#, 1
	note A#, 1
	octave 4
	note C#, 1
	octave 1
	note G#, 1
	octave 2
	note C_, 1
	note D#, 1
	note C_, 1
	note D#, 1
	note G#, 1
	octave 3
	note C_, 1
	note D#, 1
	rest 1
	octave 2
	note C_, 1
	note D#, 1
	note G#, 1
	octave 3
	note C_, 1
	note D#, 1
	note F#, 1
	note G#, 1
	octave 1
	note G#, 1
	octave 2
	note C_, 1
	note D#, 1
	note C_, 1
	note D#, 1
	note G#, 1
	octave 3
	note C_, 1
	note D#, 1
	rest 1
	octave 2
	note C_, 1
	note D#, 1
	note G#, 1
	octave 3
	note C_, 1
	note D#, 1
	note F#, 1
	note G#, 1
	octave 1
	note D#, 1
	note F#, 1
	octave 2
	note C#, 1
	octave 1
	note A#, 1
	octave 2
	note F#, 1
	note D#, 1
	note G#, 1
	octave 3
	note C#, 1
	octave 2
	note F#, 1
	note G#, 1
	octave 3
	note D#, 1
	note C#, 1
	note F#, 1
	note A#, 1
	note G#, 1
	octave 4
	note C#, 1
	octave 1
	note D#, 1
	note F#, 1
	octave 2
	note C#, 1
	octave 1
	note A#, 1
	octave 2
	note F#, 1
	note D#, 1
	note G#, 1
	octave 3
	note C#, 1
	octave 2
	note F#, 1
	note G#, 1
	octave 3
	note D#, 1
	note C#, 1
	note F#, 1
	note A#, 1
	note G#, 1
	octave 4
	note C#, 1
	octave 1
	note G#, 1
	octave 2
	note D#, 1
	note C_, 1
	note D#, 1
	note G#, 1
	note D#, 1
	octave 3
	note D#, 1
	note C_, 1
	rest 1
	octave 2
	note C_, 1
	note G#, 1
	note D#, 1
	octave 3
	note C_, 1
	note F#, 1
	note D#, 1
	note G#, 1
	octave 1
	note G#, 1
	octave 2
	note D#, 1
	note C_, 1
	note D#, 1
	note G#, 1
	note D#, 1
	octave 3
	note D#, 1
	note C_, 1
	rest 1
	octave 2
	note C_, 1
	note G#, 1
	note D#, 1
	octave 3
	note C_, 1
	note F#, 1
	note D#, 1
	note G#, 1
	octave 1
	note D#, 1
	note F#, 1
	octave 2
	note C#, 1
	octave 1
	note A#, 1
	octave 2
	note F#, 1
	note D#, 1
	note G#, 1
	octave 3
	note C#, 1
	octave 2
	note F#, 1
	note G#, 1
	octave 3
	note D#, 1
	note C#, 1
	note F#, 1
	note A#, 1
	note G#, 1
	octave 4
	note C#, 1
	octave 1
	note D#, 1
	note F#, 1
	octave 2
	note C#, 1
	octave 1
	note A#, 1
	octave 2
	note F#, 1
	note D#, 1
	note G#, 1
	octave 3
	note C#, 1
	octave 2
	note F#, 1
	note G#, 1
	octave 3
	note D#, 1
	note C#, 1
	note F#, 1
	note A#, 1
	note G#, 1
	octave 4
	note C#, 1
	octave 1
	note G#, 1
	octave 2
	note D#, 1
	note C_, 1
	note D#, 1
	note G#, 1
	note D#, 1
	octave 3
	note D#, 1
	note C_, 1
	rest 1
	octave 2
	note C_, 1
	note G#, 1
	note D#, 1
	octave 3
	note C_, 1
	note F#, 1
	note D#, 1
	note G#, 1
	octave 1
	note G#, 1
	octave 2
	note D#, 1
	note C_, 1
	note D#, 1
	note G#, 1
	note D#, 1
	octave 3
	note D#, 1
	note C_, 1
	rest 1
	octave 2
	note C_, 1
	note G#, 1
	note D#, 1
	octave 3
	note C_, 1
	note F#, 1
	note D#, 1
	note G#, 1
	loopchannel 0, Music_Cities1_Ch2_branch0
	endchannel


Music_Cities1_Ch3:: ; ac32 (2:6c32)
	notetype 12, 1, 1
	vibrato 0, 0, 0

Music_Cities1_Ch3_branch0::
	octave 4
	note D#, 16
	note D#, 16
	note G#, 16
	note G#, 16
	octave 3
	note D#, 16
	note D#, 16
	note G#, 16
	note G#, 16
	rest 16
	note D#, 16
	rest 16
	note G#, 16
	note D#, 12
	rest 16
	rest 4
	note C_, 15
	rest 1
	note C_, 16
	loopchannel 0, Music_Cities1_Ch3_branch0
	endchannel

Music_Cities1_Ch4:: ; acef (2:6cef)
	rest 8
	loopchannel 0, Music_Cities1_Ch4
	endchannel
