Music_Dungeon1_Ch1:: ; 7ded1 (1f:5ed1)
	tempo 0, 144
	stereopanning 119
	duty 3
	togglecall

Music_Dungeon1_Ch1_b0::
	notetype 12, 4, 10
	vibrato 3, 2, 4
	rest 16
	rest 16
	rest 16
	rest 14

	octave 3
	note E_, 2
	note F_, 2
	note E_, 1
	note D#, 1
	note E_, 12
	rest 2
	note A_, 2
	note G_, 6
	note F_, 1
	note E_, 1
	note F_, 6
	note E_, 1
	note D#, 1
	note E_, 6
	rest 2
	note D_, 4
	octave 2
	note B_, 8
	rest 6
	octave 1
	note E_, 2
	note A_, 2
	note B_, 2
	octave 2
	note C_, 2
	rest 2
	note E_, 2
	rest 2
	note C_, 4
	rest 2
	octave 1
	note A_, 2
	note F_, 4
	rest 2
	note E_, 2
	note F_, 2
	rest 2
	note F_, 2
	note E_, 2
	note D#, 2
	rest 2
	note A_, 2
	rest 2
	octave 2
	note C_, 4
	note D_, 2
	note C_, 2
	octave 1
	note B_, 2
	rest 2
	note B_, 2
	note A_, 2
	note G#, 4
	note A_, 2
	note B_, 2
	octave 2
	note C_, 2
	rest 2
	note E_, 2
	rest 4
	note D_, 2
	note E_, 2
	note C_, 2
	rest 4
	note F_, 4
	rest 2
	note E_, 2
	note D_, 2
	note C_, 2
	rest 4
	note E_, 4
	rest 2
	note D_, 2
	note C_, 2
	octave 1
	note B_, 2
	rest 4
	note A_, 2
	note G#, 3
	rest 3
	octave 3
	notetype 12, 7, 6
	note D_, 2
	note E_, 2
	note F_, 2
	note C_, 2
	rest 2
	note F_, 2
	note F_, 2
	note C_, 2
	note E_, 2
	note C_, 2
	note E_, 2
	note C_, 2
	rest 2
	note E_, 2
	note D_, 2
	note C_, 2
	note D_, 2
	note C_, 2
	note D_, 2
	note C_, 2
	rest 2
	note D_, 2
	note D_, 2
	note C_, 2
	note D_, 2
	octave 2
	note B_, 2
	rest 10
	octave 3
	note C_, 2
	note D_, 2
	note E_, 2
	note F_, 2
	note C_, 2
	rest 2
	note F_, 2
	note F_, 2
	note C_, 2
	note E_, 2
	note C_, 2
	note E_, 2
	note C_, 2
	rest 2
	note E_, 2
	note D_, 2
	note C_, 2
	note D_, 2
	note C_, 2
	note D_, 2
	note C_, 2
	rest 2
	note D_, 2
	note D_, 2
	note C_, 2
	note D_, 2
	octave 2
	note B_, 2
	rest 2
	octave 3
	note D_, 1
	note C_, 1
	octave 2
	note B_, 1
	note A_, 1
	note G#, 1
	note F_, 1
	note E_, 1
	note D_, 3
	loopchannel 0, Music_Dungeon1_Ch1_b0

Music_Dungeon1_Ch2:: ; 7dfde (1f:5fde)
	vibrato 11, 1, 5

Music_Dungeon1_Ch2_b0::
	notetype 12, 10, 2
	duty 2
	callchannel Music_Dungeon1_Ch2_b1
	callchannel Music_Dungeon1_Ch2_b1
	callchannel Music_Dungeon1_Ch2_b1
	callchannel Music_Dungeon1_Ch2_b1

	duty 0
	notetype 12, 10, 6
	octave 4
	note D_, 2
	note E_, 2
	note F_, 2
	note E_, 2
	note F_, 2
	note G_, 2
	note A_, 3
	note G#, 1
	note A_, 2
	note B_, 2
	octave 5
	note C_, 3
	octave 4
	note B_, 3
	note A_, 2
	note E_, 4
	rest 6
	note D_, 2
	note E_, 2
	note F_, 2
	note B_, 3
	note A_, 3
	note G_, 2
	note E_, 1
	note F_, 1
	note E_, 8
	note C_, 2
	note D_, 2
	note E_, 2
	note F_, 2
	note E_, 2
	note F_, 2
	note G_, 2
	note A_, 2 
	note G#, 2
	note A_, 2
	note B_, 2
	octave 5
	note C_, 3
	octave 4
	note B_, 3
	note A_, 2
	note E_, 6
	rest 2
	note G_, 4
	note F_, 4
	note E_, 4
	note D_, 4
	note C_, 6
	octave 4
	note B_, 6
	loopchannel 0, Music_Dungeon1_Ch2_b0
	
Music_Dungeon1_Ch2_b1::
	octave 4
	note E_, 2
	note D#, 2
	note E_, 4
	note C_, 4
	rest 4
	note D_, 2
	note E_, 2
	note F_, 4
	note D_, 4
	rest 4
	note E_, 2
	note D#, 2
	note E_, 4
	note C_, 4
	rest 4
	note D_, 2
	note D#, 2
	note E_, 4
	octave 3
	note B_, 8
	endchannel

Music_Dungeon1_Ch3:: ; 7e0dc (1f:60dc)
	notetype 12, 1, 1
	vibrato 8, 2, 6

	rest 4

Music_Dungeon1_Ch3_b0::
	octave 2
	note A_, 4
	octave 3
	note A_, 4
	octave 2
	note A_, 4
	rest 4
	octave 3
	note D_, 4
	note A_, 4
	octave 2
	note A_, 4
	rest 4
	octave 2
	note A_, 4
	octave 3
	note A_, 4
	octave 2
	note A_, 4
	rest 4
	note E_, 4
	octave 3
	note E_, 4
	rest 2
	octave 2
	note E_, 2
	note G#, 2
	note B_, 2
	loopchannel 0, Music_Dungeon1_Ch3_b0

Music_Dungeon1_Ch4:: ; 7e18a (1f:618a)
	dspeed 12

Music_Dungeon1_Ch4_b0::
	rest 16
	rest 16
	rest 16
	rest 16
	rest 4

	callchannel Music_Dungeon1_Ch4_b1
	callchannel Music_Dungeon1_Ch4_b1
	callchannel Music_Dungeon1_Ch4_b1
	callchannel Music_Dungeon1_Ch4_b1
	callchannel Music_Dungeon1_Ch4_b1
	callchannel Music_Dungeon1_Ch4_b1
	callchannel Music_Dungeon1_Ch4_b1
	callchannel Music_Dungeon1_Ch4_b1
	callchannel Music_Dungeon1_Ch4_b1
	callchannel Music_Dungeon1_Ch4_b1
	callchannel Music_Dungeon1_Ch4_b1
	callchannel Music_Dungeon1_Ch4_b1

	rest 2
	dnote 4, cymbal1
	dnote 4, cymbal1
	dnote 4, cymbal1
	dnote 4, cymbal1
	dnote 4, cymbal1
	dnote 4, cymbal1
	dnote 4, cymbal1
	dnote 4, cymbal1
	dnote 4, cymbal1
	dnote 4, cymbal1
	dnote 4, cymbal1
	dnote 4, cymbal1
	rest 6
	dnote 4, cymbal1
	dnote 4, cymbal1
	rest 2
	dnote 4, cymbal1
	dnote 4, cymbal1
	dnote 4, cymbal1
	dnote 4, cymbal1
	dnote 4, cymbal1
	dnote 4, cymbal1
	dnote 4, cymbal1
	dnote 4, cymbal1
	dnote 4, cymbal1
	dnote 4, cymbal1
	dnote 4, cymbal1 
	dnote 4, cymbal1
	dnote 4, cymbal1
	dnote 4, cymbal1
	rest 2

	loopchannel 0, Music_Dungeon1_Ch4_b0

Music_Dungeon1_Ch4_b1::
	dnote 6, cymbal1
	dnote 2, cymbal1
	dnote 8, cymbal1
	endchannel
