Music_GameCorner_Ch1:: ; 7e20b (1f:620b)
	tempo 0, 180
	stereopanning 119
	duty 0
	vibrato 12, 3, 4
	notetype 12, 8, 5

Music_GameCorner_branch_7e222::
	rest 10
	octave 4
	note G#, 1
	octave 3
	note G#, 1
	octave 4
	note F_, 1
	note D#, 1
	octave 3
	note D#, 1
	octave 4
	note C#, 7
	rest 4
	octave 3
	note G#, 1
	octave 4
	note G#, 1
	octave 3
	note A#, 1
	octave 4
	note C#, 1
	octave 5
	note C#, 1
	octave 4
	note D#, 5
	rest 4
	note F#, 1
	note D#, 1
	octave 3
	note A#, 1
	octave 4
	note D#, 1
	note F#, 1
	note D#, 1
	octave 3
	note A#, 1
	octave 4
	note D#, 1
	note F#, 7
	octave 3
	note F#, 1
	octave 4
	note F_, 1
	octave 3
	note F_, 1
	octave 4
	note F_, 1
	octave 3
	note F_, 1
	octave 4
	note F_, 1
	octave 3
	note F_, 1
	octave 4
	note F_, 1
	octave 3
	note F_, 1
	octave 4
	note C#, 4
	octave 3
	note D#, 1
	octave 4
	note D#, 1
	rest 1
	note F_, 1
	rest 1
	note G#, 1
	rest 1
	octave 5
	note C#, 1
	octave 4
	note C#, 1
	octave 5
	note C_, 1
	octave 4
	note C_, 1
	octave 5
	note C#, 5
	rest 2
	octave 4
	note G#, 1
	rest 1
	note A#, 1
	note G#, 1
	octave 3
	note G#, 1
	octave 4
	note F_, 1
	octave 3
	note A#, 1
	octave 4
	note F_, 1
	octave 3
	note A#, 1
	octave 4
	note F_, 1
	octave 3
	note A#, 8
	note A#, 1
	note B_, 1
	note A#, 1
	note B_, 1
	note A#, 1
	note B_, 1
	note A#, 1
	note B_, 1
	octave 4
	note F#, 1
	rest 1
	note F#, 1
	rest 1
	note F#, 1
	rest 1
	note F#, 1
	rest 1
	note F_, 1
	octave 3
	note F_, 1
	octave 4
	note F_, 1
	octave 3
	note F_, 1
	octave 4
	note F_, 1
	octave 3
	note F_, 1
	octave 4
	note F_, 1
	octave 3
	note F_, 1
	note A#, 1
	rest 1
	octave 2
	note C#, 1
	note C_, 1
	octave 3
	note A#, 1
	octave 4
	note D_, 1
	octave 2
	note G#, 1
	octave 4
	note D#, 1
	rest 1
	octave 2
	note G#, 1
	note G_, 1
	note F#, 1
	note F_, 1
	note E_, 1
	note D#, 1
	note D_, 1
	octave 3
	note A#, 1
	rest 1
	octave 2
	note C#, 1
	note C_, 1
	octave 3
	note A#, 1
	octave 4
	note D_, 1
	octave 2
	note G#, 1
	octave 4
	note D#, 1
	rest 1
	octave 2
	note G#, 1
	note G_, 1
	note G#, 1
	note A_, 1
	note A#, 1
	note B_, 1
	octave 3
	note C_, 1
	note B_, 1
	rest 1
	octave 2
	note D_, 1
	note C#, 1
	octave 3
	note B_, 1
	octave 4
	note D#, 1
	octave 2
	note A_, 1
	octave 4
	note E_, 1
	rest 1
	octave 2
	note A_, 1
	note G#, 1
	note G_, 1
	note F#, 1
	note F_, 1
	note E_, 1
	note D#, 1
	octave 4
	note C_, 1
	rest 1
	octave 2
	note D#, 1
	note D_, 1
	octave 4
	note C_, 1
	note E_, 1
	octave 2
	note A#, 1
	octave 4
	note F_, 1
	rest 1
	octave 2
	note A#, 1
	note A_, 1
	note A#, 1
	note B_, 1
	octave 3
	note C_, 1
	note C#, 1
	note D_, 1
	note C#, 1
	note F_, 1
	rest 1
	note D#, 1
	rest 2
	note F_, 1
	rest 1
	note D#, 1
	octave 2
	note A#, 1
	octave 3
	rest 1
	note D#, 1
	rest 2
	octave 2
	note A#, 1
	octave 3
	rest 1
	note D#, 1
	note F_, 1
	note D#, 1
	octave 2
	note A#, 1
	rest 1
	note A_, 1
	note G#, 1
	note G_, 1
	note F#, 1
	rest 7
	loopchannel 0, Music_GameCorner_branch_7e222


Music_GameCorner_Ch2:: ; 7e2df (1f:62df)
	duty 2
	vibrato 10, 0, 3
	notetype 12, 12, 5

Music_GameCorner_branch_7e2fa::
	rest 2
	octave 3
	note G#, 2
	note A#, 2
	note G#, 1
	octave 4
	note F_, 3
	note C#, 2
	rest 6
	octave 3
	note G#, 2
	note A#, 2
	note G#, 1
	octave 4
	note F_, 3
	note C#, 2
	rest 6
	octave 3
	note A#, 2
	octave 4
	note C#, 2
	octave 3
	note A#, 1
	octave 4
	note F#, 3
	note D#, 2
	rest 4
	octave 3
	note A#, 8
	note A_, 8
	rest 2
	note G#, 2
	note A#, 2
	note G#, 1
	octave 4
	note F_, 3
	note C#, 2
	rest 6
	octave 3
	note G#, 2
	note A#, 2
	note G#, 1
	octave 4
	note F_, 3
	note C#, 2
	rest 6
	octave 3
	note A#, 2
	octave 4
	note C#, 2
	octave 3
	note A#, 1
	octave 4
	note F#, 3
	note D#, 2
	rest 4
	octave 3
	note A#, 8
	note A_, 8
	note C#, 1
	rest 3
	note C#, 1
	note F_, 1
	rest 1
	note F#, 1
	rest 3
	note A#, 1
	note G#, 1
	rest 1
	note A#, 1
	rest 1
	note C#, 1
	rest 3
	note C#, 1
	note F_, 1
	rest 1
	note F#, 1
	rest 3
	note A#, 1
	note G#, 1
	rest 1
	note A#, 1
	rest 1
	note D_, 1
	rest 3
	note D_, 1
	note F#, 1
	rest 1
	note G_, 1
	rest 3
	note B_, 1
	note A_, 1
	rest 1
	note B_, 1
	rest 1
	note D#, 1
	rest 3
	note D#, 1
	note G_, 1
	rest 1
	note G#, 1
	rest 3
	octave 4
	note C_, 1
	octave 3
	note A#, 1
	rest 1
	octave 4
	note C_, 1
	rest 1
	note C#, 1
	octave 3
	note A#, 1
	rest 1
	note G#, 1
	rest 2
	note A#, 1
	rest 1
	note G#, 1
	rest 2
	note G#, 1
	rest 4
	note G#, 1
	note A#, 1
	rest 1
	note G#, 1
	rest 1
	note F#, 1
	note D#, 1
	note D_, 1
	note C#, 1
	rest 1
	note F_, 2
	note G#, 2
	note F_, 2
	loopchannel 0, Music_GameCorner_branch_7e2fa

Music_GameCorner_Ch3:: ; 7e38b (1f:638b)
	notetype 12, 1, 2

Music_GameCorner_branch_7e3a5::
	octave 3
	note C#, 8
	note F_, 8
	note G#, 8
	note F_, 8
	note D#, 8
	note F#, 16
	note F_, 8
	note C#, 8
	note F_, 8
	note G#, 8
	note F_, 8
	note D#, 8
	note F#, 8
	octave 4
	note D#, 1
	rest 1
	note D#, 1
	rest 1
	note D#, 1
	rest 1
	note D#, 1
	rest 1
	note D#, 1
	rest 1
	note D#, 1
	rest 1
	note D#, 1
	rest 1
	note D#, 1
	rest 1
	rest 16
	rest 16
	rest 16
	rest 16
	rest 16
	rest 12
	octave 3
	note F_, 2
	note D#, 2
	loopchannel 0, Music_GameCorner_branch_7e3a5
