Music_GymLeaderBattle_Ch1:: ; 22370 (8:6370)
	tempo 0, 114
	stereopanning 119
	duty 2
	vibrato 2, 1, 6
	togglecall
	notetype 12, 10, 7

	octave 2
	note C#, 2
	rest 2
	note C#, 2
	note E_, 4
	note D#, 2
	rest 2
	octave 1
	note B_, 2
	octave 2
	note C#, 2
	rest 2
	note C#, 2
	note E_, 4
	note D#, 2
	rest 2
	octave 1
	note B_, 2
	note G#, 1
	rest 1
	note G#, 1
	rest 13
	note G#, 1
	rest 1
	note G#, 1
	rest 5
	octave 2
	note E_, 1
	rest 1
	note E_, 1
	rest 5

Music_GymLeaderBattl_Ch1_b0::
Music_GymLeaderBattle_Ch1_b1::
	octave 2
	note C#, 2
	note E_, 1
	note A_, 1
	octave 3
	note C#, 1
	octave 2
	note A_, 1
	note E_, 2
	loopchannel 4, Music_GymLeaderBattle_Ch1_b1

Music_GymLeaderBattle_Ch1_b2::
	octave 1
	note B_, 2
	octave 2
	note D#, 1
	note F#, 1
	note B_, 1
	note F#, 1
	note D#, 2	
	loopchannel 4, Music_GymLeaderBattle_Ch1_b2

Music_GymLeaderBattle_Ch1_b3::
	octave 1
	note A_, 2
	octave 2
	note C#, 1
	note E_, 1
	note A_, 1
	note E_, 1
	note C#, 2
	loopchannel 4, Music_GymLeaderBattle_Ch1_b3

Music_GymLeaderBattle_Ch1_b2_::
	octave 1
	note B_, 2
	octave 2
	note D#, 1
	note F#, 1
	note B_, 1
	note F#, 1
	note D#, 2	
	loopchannel 4, Music_GymLeaderBattle_Ch1_b2_

Music_GymLeaderBattle_Ch1_b4::
	octave 1
	note A_, 16
	note A_, 16
	note G#, 16
	note G#, 16
	rest 16
	rest 16
	rest 10
	note G#, 6

Music_GymLeaderBattle_Ch1_b5::
	octave 2
	note C#, 3
	note E_, 2
	note C_, 1
	loopchannel 8, Music_GymLeaderBattle_Ch1_b5

Music_GymLeaderBattle_Ch1_b6::
	octave 1
	note B_, 3
	octave 2
	note D#, 2
	octave 1
	note A_, 1
	loopchannel 8, Music_GymLeaderBattle_Ch1_b6

Music_GymLeaderBattle_Ch1_b7::
	octave 2
	note C#, 3
	note E_, 2
	note F#, 1
	note G#, 3
	note E_, 2
	note C_, 1
	loopchannel 4, Music_GymLeaderBattle_Ch1_b7

Music_GymLeaderBattle_Ch1_b8::
	octave 1
	note B_, 3
	note A_, 2
	note A#, 1
	note B_, 3
	octave 2
	note F#, 2
	octave 1
	note A_, 1
	loopchannel 4, Music_GymLeaderBattle_Ch1_b8

	rest 16
	rest 5

	octave 2
	note E_, 1
	rest 1
	octave 1
	note B_, 1
	octave 2
	note C#, 8
	rest 13
	note C#, 1
	rest 1
	octave 1
	note A_, 1
	note B_, 8
	rest 13
	octave 2
	note C#, 1
	rest 1
	octave 1
	note A_, 1
	note B_, 8
	rest 16
	octave 2
	note C#, 16
	note C#, 16
	octave 1
	note B_, 16
	note B_, 16

	loopchannel 0, Music_GymLeaderBattl_Ch1_b0


Music_GymLeaderBattle_Ch2:: ; 225a1 (8:65a1)
	duty 1
	vibrato 4, 4, 2
	notetype 12, 12, 7

	octave 3
	note C#, 1
	rest 1
	octave 4
	note C#, 1
	rest 1
	octave 3
	note C#, 1
	rest 1
	octave 4
	note C#, 1
	octave 3
	note C#, 1
	rest 2
	octave 4
	note C#, 1
	rest 1
	octave 3
	note C#, 1
	rest 1
	octave 4
	note C#, 1
	rest 1
	octave 3
	note C#, 1
	rest 1
	octave 4
	note C#, 1
	rest 1
	octave 3
	note C#, 1
	rest 1
	octave 4
	note C#, 1
	octave 3
	note C#, 1
	rest 2
	octave 4
	note C#, 1
	rest 1
	octave 3
	note C#, 1
	rest 1
	octave 4
	note C#, 1
	rest 1
	octave 3
	note C#, 1
	rest 1
	note C#, 1
	rest 13
	octave 2
	note B_, 1
	rest 1
	note B_, 1
	rest 5
	octave 3
	note C#, 1
	rest 1
	note C#, 1
	rest 5

Music_GymLeaderBattle_Ch2_b0::
	duty 1
	octave 4
	note E_, 14
	note F#, 2
	note E_, 3
	note F#, 3
	note E_, 10
	note D#, 14
	note E_, 2
	note D#, 3
	note E_, 3
	note D#, 10
	note C#, 14
	note E_, 2
	note C#, 3
	note E_, 3
	note F#, 10
	note D#, 14
	note F#, 2
	note A_, 4
	note G#, 4
	note F#, 4
	note E_, 4
	note C#, 16
	note C#, 16
	note D#, 16
	note D#, 16
	rest 2
	octave 2
	note G#, 1
	rest 2
	note G#, 1
	rest 2
	note G#, 1
	note A_, 2
	note G#, 1
	rest 2
	note G#, 1
	rest 2
	note G#, 1
	rest 2
	note G#, 1
	note A_, 1
	note B_, 1
	note A_, 1
	rest 2
	note G#, 1
	rest 2
	note G#, 1
	rest 2
	note G#, 1
	note A_, 2
	note G#, 1
	rest 2
	note G#, 1
	rest 2
	note G#, 1
	rest 2
	note G#, 1
	note B_, 1
	octave 3
	note C#, 1
	octave 2
	note B_, 1

	duty 0

Music_GymLeaderBattle_Ch2_b1::
	octave 2
	note G#, 1
	rest 1
	note G#, 1
	note A_, 1
	rest 1
	note G#, 1
	note B_, 1
	rest 1
	note G#, 1
	note A_, 2
	note G#, 1
	note G#, 1
	rest 1
	note G#, 1
	note A_, 1
	rest 1
	note G#, 1
	note B_, 1
	rest 1
	note G#, 1
	note A_, 1
	note B_, 1
	note A_, 1
	note G#, 1
	rest 1
	note G#, 1
	note A_, 1
	rest 1
	note G#, 1
	rest 2
	note G#, 1
	note A_, 2
	note G#, 1
	rest 2
	note G#, 1
	note G_, 1
	rest 1
	note G#, 1
	rest 2
	note G#, 1
	note A_, 1
	note B_, 1
	note A_, 1
	rest 2
	note F#, 1
	rest 2
	note F#, 1
	rest 2
	note F#, 1
	note G#, 2
	note F#, 1
	rest 2
	note F#, 1
	rest 2
	note F#, 1
	rest 2
	note F#, 1
	note G#, 1
	note A_, 1
	note G#, 1
	rest 2
	note F#, 1
	rest 2
	note F#, 1
	rest 2
	note F#, 1
	note G_, 2
	note F#, 1
	rest 2
	note F#, 1
	rest 2
	note F#, 1
	rest 2
	note F#, 1
	note A_, 1
	note B_, 1
	note A_, 1
	loopchannel 2, Music_GymLeaderBattle_Ch2_b1

Music_GymLeaderBattle_Ch2_b2::
	rest 3
	octave 2
	note G#, 1
	rest 1
	note A_, 1
	note B_, 3
	octave 3
	note C#, 1
	rest 1
	octave 2
	note B_, 1
	note A_, 3
	note G#, 1
	rest 2
	note G_, 3
	note G#, 1
	rest 2
	loopchannel 2, Music_GymLeaderBattle_Ch2_b2

Music_GymLeaderBattle_Ch2_b3::
	rest 3
	octave 3
	note D#, 1
	rest 1
	note E_, 1
	note F#, 3
	note A_, 1
	rest 1
	note G#, 1
	note F#, 3
	note E_, 1
	rest 2
	note D#, 3
	note E_, 1
	rest 2
	loopchannel 2, Music_GymLeaderBattle_Ch2_b3

	octave 3
	note E_, 16
	note E_, 16
	note D#, 16
	note D#, 16

	loopchannel 0, Music_GymLeaderBattle_Ch2_b0

Music_GymLeaderBattle_Ch3:: ; 226ef (8:66ef)
	vibrato 0, 2, 0
	notetype 12, 1, 2

	octave 3
	note G#, 1
	rest 3
	note G#, 1
	rest 3
	note G#, 1
	rest 3
	note G#, 1
	rest 3
	note G#, 1
	rest 3
	note G#, 1
	rest 3
	note G#, 1
	rest 3
	note G#, 1
	rest 7
	note G#, 1
	note A_, 1
	note G#, 1
	note A_, 1
	note G#, 1
	note A_, 1
	note G#, 1
	note A_, 1
	note G#, 1
	rest 7
	note F#, 1
	note G_, 1
	note F#, 1
	rest 9

Music_GymLeaderBattle_Ch3_b1::
	octave 3
	note C#, 16
	note E_, 3
	note D#, 3
	note C#, 10
	octave 2
	note B_, 16
	octave 3
	note D#, 3
	note C#, 3
	octave 2
	note B_, 10
	note A_, 16
	octave 3
	note C#, 3
	octave 2
	note B_, 3
	octave 3
	note C#, 10
	octave 2
	note B_, 16
	octave 3
	note D#, 12
	octave 2
	note B_, 4
	octave 3
	note C#, 16
	octave 2
	note A_, 16
	note G#, 16
	note G#, 16

Music_GymLeaderBattle_Ch3_b2::
	octave 4
	note E_, 1
	rest 2
	note C#, 1
	rest 2
	loopchannel 16, Music_GymLeaderBattle_Ch3_b2

Music_GymLeaderBattle_Ch3_b3::
	octave 4
	note D#, 1
	rest 2
	octave 3
	note B_, 1
	rest 2
	loopchannel 8, Music_GymLeaderBattle_Ch3_b3

Music_GymLeaderBattle_Ch3_b4::
	octave 4
	note E_, 1
	rest 2
	note C#, 1
	rest 2
	loopchannel 8, Music_GymLeaderBattle_Ch3_b4

Music_GymLeaderBattle_Ch3_b5::
	octave 4
	note D#, 1
	rest 2
	octave 3
	note B_, 1
	rest 2
	loopchannel 8, Music_GymLeaderBattle_Ch3_b5	

Music_GymLeaderBattle_Ch3_b6::
	octave 4
	note E_, 1
	rest 2
	note C#, 1
	rest 2
	loopchannel 8, Music_GymLeaderBattle_Ch3_b6

Music_GymLeaderBattle_Ch3_b7::
	octave 4
	note D#, 1
	rest 2
	octave 3
	note B_, 1
	rest 2
	loopchannel 8, Music_GymLeaderBattle_Ch3_b7		

	octave 3
	note G#, 16
	note G#, 16
	note F#, 16
	note F#, 16

	loopchannel 0, Music_GymLeaderBattle_Ch3_b1
	