Music_MeetEvilTrainer_Ch1:: ; 7e887 (1f:6887)
	tempo 0, 150
	stereopanning 119
	duty 1
	notetype 12, 10, 1

Music_MusicMeetEvilTrainer2_Ch1_b0::
	callchannel Music_MusicMeetEvilTrainer2_Ch1_b1
	callchannel Music_MusicMeetEvilTrainer2_Ch1_b1
	callchannel Music_MusicMeetEvilTrainer2_Ch1_b2
	loopchannel 0, Music_MusicMeetEvilTrainer2_Ch1_b0

Music_MusicMeetEvilTrainer2_Ch1_b1::
	rest 1
	octave 4
	note F#, 1
	rest 1
	note G#, 1
	rest 1
	note A_, 1
	rest 1
	note G#, 1
	rest 1
	note A_, 1
	rest 1
	note B_, 1
	rest 1
	note A_, 1
	rest 1
	note G#, 1
	rest 1
	octave 5
	note C#, 1
	rest 1
	octave 4
	note A_, 1
	rest 1
	note G#, 1
	rest 1
	note B_, 1
	rest 1
	note A_, 1
	rest 1
	note G#, 1
	rest 1
	note A_, 1
	rest 1
	note G#, 1
	endchannel

Music_MusicMeetEvilTrainer2_Ch1_b2::
	rest 1
	octave 4
	note F_, 1
	rest 1
	note F#, 1
	rest 1
	note G#, 1
	rest 1
	note F_, 1
	rest 1
	note B_, 1
	rest 1
	note A_, 1
	rest 1
	note G#, 1
	rest 1
	note A_, 1
	rest 1
	note G#, 1
	rest 1
	note F#, 1
	rest 1
	note F_, 1
	rest 1
	note G#, 1
	rest 1
	note F#, 1
	rest 1
	note F_, 1
	rest 1
	note F#, 1
	rest 1
	note G#, 1
	rest 1
	note F_, 1
	rest 1
	note F#, 1
	rest 1
	note G#, 1
	rest 1
	note F_, 1
	rest 1
	note B_, 1
	rest 1
	note A_, 1
	rest 1
	note G#, 1
	rest 1
	note A_, 1
	rest 1
	note G#, 1
	rest 1
	note F#, 1
	rest 1
	note F_, 1
	rest 1
	note G#, 1
	rest 1
	note F_, 1
	rest 1
	note D_, 1
	rest 1
	note F_, 1
	rest 1
	note G_, 1
	endchannel


Music_MusicMeetEvilTrainer2_Ch2:: ; 7e8d8 (1f:68d8)
	duty 3
	notetype 12, 12, 1

Music_MusicMeetEvilTrainer2_Ch2_b0::
	callchannel Music_MusicMeetEvilTrainer2_Ch2_b1
	callchannel Music_MusicMeetEvilTrainer2_Ch2_b1
	callchannel Music_MusicMeetEvilTrainer2_Ch2_b2
	loopchannel 0, Music_MusicMeetEvilTrainer2_Ch2_b0

Music_MusicMeetEvilTrainer2_Ch2_b1::
	octave 4
	note F#, 1
	rest 1
	note G#, 1
	rest 1
	note A_, 1
	rest 1
	note G#, 1
	rest 1
	note A_, 1
	rest 1
	note B_, 1
	rest 1
	note A_, 1
	rest 1
	note G#, 1
	rest 1
	octave 5
	note C#, 1
	rest 1
	octave 4
	note A_, 1
	rest 1
	note G#, 1
	rest 1
	note B_, 1
	rest 1
	note A_, 1
	rest 1
	note G#, 1
	rest 1
	note A_, 1
	rest 1
	note G#, 1
	rest 1
	endchannel

Music_MusicMeetEvilTrainer2_Ch2_b2::
	octave 4
	note F_, 1
	rest 1
	note F#, 1
	rest 1
	note G#, 1
	rest 1
	note F_, 1
	rest 1
	note B_, 1
	rest 1
	note A_, 1
	rest 1
	note G#, 1
	rest 1
	note A_, 1
	rest 1
	note G#, 1
	rest 1
	note F#, 1
	rest 1
	note F_, 1
	rest 1
	note G#, 1
	rest 1
	note F#, 1
	rest 1
	note F_, 1
	rest 1
	note F#, 1
	rest 1
	note G#, 1
	rest 1
	note F_, 1
	rest 1
	note F#, 1
	rest 1
	note G#, 1
	rest 1
	note F_, 1
	rest 1
	note B_, 1
	rest 1
	note A_, 1
	rest 1
	note G#, 1
	rest 1
	note A_, 1
	rest 1
	note G#, 1
	rest 1
	note F#, 1
	rest 1
	note F_, 1
	rest 1
	note G#, 1
	rest 1
	note F_, 1
	rest 1
	note D_, 1
	rest 1
	note F_, 1
	rest 1
	note G_, 1
	rest 1
	endchannel


Music_MusicMeetEvilTrainer2_Ch3:: ; 7e93b (1f:693b)
	notetype 12, 1, 2

Music_MusicMeetEvilTrainer2_Ch3_b0::
	callchannel Music_MusicMeetEvilTrainer2_branch_7e940
	callchannel Music_MusicMeetEvilTrainer2_branch_7e940
	callchannel Music_MusicMeetEvilTrainer2_branch_7e941
	loopchannel 0, Music_MusicMeetEvilTrainer2_Ch3_b0

Music_MusicMeetEvilTrainer2_branch_7e940::
	octave 5
	note C#, 2
	rest 2
	octave 4
	note C#, 2
	octave 5
	note C_, 2
	rest 2
	octave 4
	note C#, 2
	note G#, 2
	note C#, 2
	note A_, 2
	rest 2
	note C#, 2
	note F#, 2
	octave 3
	note A_, 2
	octave 4
	note C_, 2
	note D#, 2
	note F#, 2
	endchannel

Music_MusicMeetEvilTrainer2_branch_7e941::
	octave 5
	note C#, 2
	rest 2
	octave 4
	note C#, 2
	note B_, 2
	rest 2
	note C#, 2
	note G#, 2
	note C#, 2
	note G#, 2
	rest 2
	note C#, 2
	note B_, 2
	octave 3
	note G#, 2
	note B_, 2
	octave 4
	note G#, 2
	octave 5
	note C#, 2
	note D_, 2
	octave 4
	note F#, 2
	note G#, 2
	note B_, 2
	rest 2
	note F#, 2
	note G#, 2
	note A_, 2
	note G#, 2
	rest 2
	note C#, 2
	note D_, 2
	octave 3
	note A_, 2
	octave 4
	note C_, 2
	note D_, 2
	note F_, 2
	endchannel

Music_MusicMeetEvilTrainer2_Ch4:: ; 7e9dc (1f:69dc)
	dspeed 12

Music_MusicMeetEvilTrainer2_branch_7e9dd::
	dnote 2, triangle3
	dnote 4, cymbal1
	dnote 1, triangle3
	dnote 1, triangle3
	dnote 2, triangle3
	dnote 6, cymbal1
	loopchannel 0, Music_MusicMeetEvilTrainer2_branch_7e9dd
; 0x7e9f1