Music_OaksLab_Ch1:: ; af59 (2:6f59)
	tempo 0, 130
	stereopanning 119
	duty 3
	togglecall
	notetype 12, 8, 2

Music_OaksLab_Ch1_b0::
	octave 3
	note D_, 1
	rest 3
	note D_, 1
	rest 5
	note D_, 1
	rest 3
	note D_, 1
	rest 3
	note D_, 1
	rest 3
	note D_, 1
	rest 7
	note D_, 1
	rest 1
	octave 2
	note B_, 1
	rest 3
	note B_, 1
	rest 5
	note B_, 1
	rest 3
	note B_, 1
	rest 3
	note B_, 1
	rest 7
	note B_, 1
	rest 5
	note A#, 1
	rest 3
	note A#, 1
	rest 5
	octave 3
	note C_, 1
	rest 3
	note C_, 1
	rest 5
	octave 2
	note A#, 1
	rest 3
	note A#, 1
	rest 5
	note A#, 1
	rest 1
	note A_, 1
	rest 3
	note A_, 1
	rest 5
	note A_, 1
	rest 3
	note B_, 1
	rest 3
	note B_, 1
	rest 3
	note A_, 1
	rest 7
	note A_, 1
	rest 1
	note A#, 1
	rest 3
	note A#, 1
	rest 5
	note A#, 1
	rest 3
	octave 3
	note C_, 1
	rest 3
	note C_, 1
	rest 3
	octave 2
	note A#, 1
	rest 7
	note A#, 1
	rest 1
	octave 3
	note C_, 1
	rest 3
	note C_, 1
	rest 5
	note C_, 1
	rest 3
	octave 2
	note B_, 1
	rest 3
	note B_, 1
	rest 3
	note B_, 1
	rest 7
	note B_, 1
	rest 1
	octave 3
	note C_, 1
	rest 3
	note C_, 1
	rest 5
	note C_, 1
	rest 3
	note C_, 1
	rest 3
	note C_, 1
	rest 3
	note C_, 1
	rest 5
	note C_, 1
	rest 3
	note C_, 1
	rest 5
	note C_, 1
	rest 3
	note C_, 1
	rest 3
	octave 2
	note B_, 1
	rest 5
	note B_, 1
	rest 3
	note B_, 1
	rest 3
	octave 3
	note C_, 1
	rest 3
	loopchannel 0, Music_OaksLab_Ch1_b0

Music_OaksLab_Ch2:: ; afa9 (2:6fa9)
	vibrato 12, 2, 3
	duty 2

Music_OaksLab_Ch2_b0::
	octave 4
	notetype 12, 12, 3
	note E_, 2
	note E_, 2
	note E_, 2
	note E_, 2
	note E_, 2
	note F_, 2
	note F#, 2
	notetype 12, 12, 15
	note G_, 8
	notetype 12, 12, 5
	note A_, 4
	note G_, 2
	note E_, 2
	note C_, 2
	note E_, 6
	note D_, 16
	octave 3
	note G_, 2
	octave 4
	note E_, 2
	note D_, 2
	note C_, 2
	note D_, 2
	note C_, 2
	rest 2
	octave 3
	duty 3
	notetype 12, 5, 3
	note G_, 1
	rest 5
	note G_, 1
	rest 3
	duty 2
	notetype 12, 12, 5
	octave 5
	note C_, 2
	rest 4
	octave 3
	duty 3
	notetype 12, 5, 3
	note G_, 1
	rest 3
	note G_, 1
	rest 1
	duty 2
	notetype 12, 12, 5
	note G_, 2
	note A_, 2
	octave 4
	notetype 12, 12, 15
	note C_, 6
	notetype 12, 12, 5
	rest 6
	octave 3
	duty 3
	notetype 12, 5, 3
	note F_, 1
	rest 3
	note G_, 1
	rest 3
	duty 2
	notetype 12, 12, 5
	octave 4
	note G_, 2
	note D#, 2
	note D_, 2
	note C_, 3
	rest 1
	note C_, 2
	note D_, 1
	rest 1
	note D#, 6
	note D_, 4
	note C_, 4
	octave 3
	note G#, 4
	note G#, 2
	note A#, 2
	octave 4
	note C_, 2
	rest 2
	note F_, 2
	note D#, 3
	rest 1
	note D_, 6
	note C_, 4
	octave 3
	note B_, 4
	note G_, 6
	octave 4
	note D_, 2
	note C_, 4
	note D_, 2
	note C_, 4
	note D#, 6
	note D_, 4
	note C_, 4
	octave 3
	note G#, 4
	note G#, 4
	note F_, 2
	note A#, 4
	octave 4
	note D#, 4
	notetype 12, 12, 15
	note D_, 16
	notetype 12, 12, 5
	note C_, 4
	octave 3
	note B_, 4
	octave 4
	note C_, 4
	note D_, 4
	loopchannel 0, Music_OaksLab_Ch2_b0

Music_OaksLab_Ch3:: ; b03d (2:703d)
	notetype 12, 1, 1

Music_OaksLab_Ch3_b0::
	octave 3
	note C_, 6
	note G_, 8
	note C_, 8
	note G_, 8
	note D_, 8
	note G_, 8
	note D_, 8
	note B_, 8
	note G_, 2
	note A#, 8
	note A_, 6
	note G_, 2
	note A#, 8
	octave 4
	note G_, 6
	octave 3
	note A#, 2
	note A_, 16
	note A_, 15
	rest 1
	octave 2
	note G#, 4
	octave 3
	note G#, 8
	octave 2
	note G#, 4
	octave 3
	note G#, 8
	octave 2
	note G#, 4
	octave 3
	note G#, 4
	octave 2
	note G_, 6
	octave 3
	note D_, 6
	note G_, 6
	note D_, 6
	octave 2
	note G_, 2
	octave 3
	note G_, 2
	note D_, 4
	octave 2
	note F_, 4
	octave 3
	note F_, 8
	octave 2
	note F_, 2
	octave 3
	note F_, 10
	octave 2
	note F_, 2
	octave 3
	note F_, 6
	octave 2
	note G_, 4
	octave 3
	note G_, 6
	note D_, 4
	octave 2
	note G_, 6
	note A_, 4
	note B_, 4
	octave 3
	note C_, 4
	loopchannel 0, Music_OaksLab_Ch3_b0

Music_OaksLab_Ch4::
	dspeed 12
	rest 4

Music_OaksLab_Ch4_b0::
	dnote 8, cymbal1
	loopchannel 0, Music_OaksLab_Ch4_b0
