Music_PalletTown_Ch1:: ; a7c5 (2:67c5)
	tempo 0, 160
	stereopanning 119
	duty 2
	notetype 12, 12, 5
	vibrato 15, 2, 3

Music_PalletTown_Ch1_branch0::
	octave 3
	note C#, 6
	octave 4
	note C#, 2
	octave 3
	note G#, 8
	note C#, 6
	octave 4
	note C#, 2
	octave 3
	note G#, 8
	note F#, 6
	note A#, 2
	octave 4
	note F#, 8
	octave 3
	note F#, 4
	octave 4
	note F#, 4
	note C#, 8
	octave 3
	note C#, 6
	octave 4
	note C#, 2
	octave 3
	note G#, 8
	note C#, 6
	octave 4
	note C#, 2
	octave 3
	note G#, 8
	note G#, 6
	octave 4
	note C_, 2
	note G#, 8
	octave 3
	note G#, 4
	octave 4
	note G#, 4
	note D#, 8
	notetype 12, 12, 2
	octave 3
	note F_, 2
	note G#, 2
	note G#, 2
	note G#, 2
	note F_, 2
	note G#, 2
	note G#, 2
	note G#, 2
	note F#, 2
	note A#, 2
	note A#, 2
	note A#, 2
	note F#, 2
	note A#, 2
	note A#, 2
	note A#, 2
	note G#, 2
	octave 4
	note C_, 2
	note C_, 2
	note C_, 2
	octave 3
	note G#, 2
	octave 4
	note C_, 2
	note C_, 2
	note C_, 2
	notetype 12, 12, 5
	note C#, 1
	octave 3
	note A#, 1
	note G#, 1
	note F_, 1
	note C#, 1
	note F_, 1
	note G#, 1
	octave 4
	note C_, 1
	note C#, 8
	loopchannel 0, Music_PalletTown_Ch1_branch0
	endchannel


Music_PalletTown_Ch2:: ; a85f (2:685f)
	duty 2
	notetype 12, 12, 2

Music_PalletTown_Ch2_branch0::
	rest 2
	octave 4
	note G#, 2
	note F_, 2
	note C#, 2
	rest 10
	note G#, 2
	note F_, 2
	note C#, 2
	rest 10
	octave 5
	note F#, 2
	note F#, 2
	note C#, 2
	rest 10
	note F#, 2
	note C#, 2
	note D#, 2
	rest 10
	octave 4
	note G#, 2
	note F_, 2
	note C#, 2
	rest 10
	note G#, 2
	note F_, 2
	note C#, 2
	rest 10
	octave 5
	note C_, 2
	note F_, 2
	note D#, 2
	rest 8
	note D#, 4
	note D#, 2
	note D#, 2
	note F_, 2
	note D#, 2
	note D#, 2
	note D#, 2
	note F_, 2
	note C#, 2
	octave 4
	note G#, 2
	note F_, 2
	octave 5
	note F_, 2
	note C#, 2
	octave 4
	note G#, 2
	note F_, 2
	octave 5
	note F#, 2
	note C#, 2
	octave 4
	note A#, 2
	note F#, 2
	octave 5
	note F#, 2
	note C#, 2
	octave 4
	note A#, 2
	note F#, 2
	octave 5
	note G#, 2
	note D#, 2
	note C_, 2
	octave 4
	note G#, 2
	octave 5
	note G#, 2
	note D#, 2
	note C_, 2
	note D#, 2
	note C#, 4
	note D#, 4
	note C#, 8
	loopchannel 0, Music_PalletTown_Ch2_branch0
	endchannel


Music_PalletTown_Ch3:: ; a8de (2:68de)
	vibrato 0, 2, 3
	notetype 12, 1, 0

Music_PalletTown_Ch3_branch0::
	octave 4
	note G#, 8
	note F_, 8
	note G#, 8
	note F_, 8
	note A#, 8
	note F#, 8
	note C#, 8
	note F#, 8
	note G#, 8
	note F_, 8
	note G#, 8
	note F_, 8
	note C_, 8
	note D#, 8
	note C_, 8
	octave 3
	note G#, 8
	octave 4
	note D#, 4
	note F_, 4
	note D#, 4
	note F_, 4
	note D#, 4
	note F#, 4
	note D#, 4
	note F#, 4
	note C_, 4
	note D#, 4
	note C_, 4
	note D#, 4
	note C#, 16
	loopchannel 0, Music_PalletTown_Ch3_branch0
	endchannel
