Music_Routes1_Ch1:: ; 9bde (2:5bde)
	tempo 0, 176
	stereopanning 119
	vibrato 7, 2, 3
	duty 2
	notetype 12, 10, 5

Music_Routes1_Ch1_branch0::
	rest 2
	octave 4
	note F_, 1
	rest 1
	note C#, 1
	rest 3
	note A#, 8
	rest 2
	note F#, 1
	rest 1
	note D#, 1
	rest 1
	note F#, 1
	rest 1
	note C_, 8
	rest 2
	note C_, 1
	rest 1
	octave 3
	note G#, 1
	rest 1
	note A#, 1
	rest 1
	octave 4
	note C_, 1
	rest 1
	note C#, 1
	rest 1
	note D#, 1
	rest 1
	note C#, 1
	rest 3
	note F_, 1
	rest 1
	note C#, 1
	rest 3
	note C#, 8
	rest 2
	note F_, 1
	rest 1
	note C#, 1
	rest 3
	note A#, 8
	rest 2
	note F#, 1
	rest 1
	note D#, 1
	rest 1
	note F#, 1
	rest 1
	note C_, 8
	rest 2
	note C_, 1
	rest 1
	octave 3
	note G#, 1
	rest 1
	note A#, 1
	rest 1
	octave 4
	note C_, 1
	rest 1
	octave 3
	note G#, 1
	rest 1
	note A#, 1
	rest 1
	octave 4
	note C_, 1
	rest 3
	note F_, 1
	rest 1
	note C#, 1
	rest 3
	note F_, 8
	note F_, 4
	note C#, 4
	note F_, 2
	note C#, 2
	rest 4
	note F_, 2
	note C#, 1
	note D#, 1
	note F_, 2
	note F#, 2
	note G#, 2
	note A#, 2
	note G#, 2
	octave 5
	note C#, 2
	octave 4
	note F_, 4
	note C#, 4
	note F_, 2
	note C#, 2
	rest 4
	note F#, 2
	note F_, 2
	note D#, 2
	note C_, 2
	note C#, 8
	loopchannel 0, Music_Routes1_Ch1_branch0
	endchannel


Music_Routes1_Ch2:: ; 9c51 (2:5c51)
	duty 2
	vibrato 7, 2, 3
	notetype 12, 12, 5

Music_Routes1_Ch2_branch0::
	octave 3
	note G#, 2
	note F_, 1
	note F#, 1
	note G#, 2
	octave 4
	note C_, 2
	note C#, 4
	octave 3
	note A#, 2
	note F#, 2
	note A#, 2
	note F#, 1
	note G#, 1
	note A#, 2
	note F#, 2
	note D#, 8
	note D#, 2
	note C_, 1
	note C#, 1
	note D#, 2
	note F_, 2
	note F#, 2
	note G#, 2
	note A#, 2
	note G#, 2
	note G#, 2
	note F_, 1
	note F#, 1
	note G#, 2
	note F#, 2
	note F_, 8
	note G#, 2
	note F_, 1
	note F#, 1
	note G#, 2
	octave 4
	note C_, 2
	note C#, 4
	octave 3
	note A#, 2
	note F#, 2
	note A#, 2
	note F#, 1
	note G#, 1
	note A#, 2
	octave 4
	note C#, 2
	note D#, 8
	note D#, 2
	note F#, 1
	note F_, 1
	note D#, 2
	note G#, 1
	note F#, 1
	note D#, 2
	note A#, 1
	note G#, 1
	note F_, 4
	note G#, 2
	note A#, 1
	note F#, 1
	note F_, 2
	note F#, 1
	note D#, 1
	note C#, 8
	octave 3
	note G#, 4
	note F_, 4
	note G#, 2
	note F_, 2
	rest 4
	note G#, 2
	note F_, 1
	note F#, 1
	note G#, 2
	note A#, 2
	octave 4
	note C_, 8
	octave 3
	note G#, 4
	note F_, 4
	note G#, 2
	note F_, 2
	rest 4
	note D#, 1
	note C#, 1
	note C_, 2
	octave 2
	note A#, 2
	note G#, 1
	octave 3
	note C_, 1
	note C#, 8
	loopchannel 0, Music_Routes1_Ch2_branch0
	endchannel

Music_Routes1_Ch3:: ; 9cd8 (2:5cd8)
	vibrato 0, 0, 0
	notetype 12, 1, 2

Music_Routes1_branch_9cdd::
	octave 4
	note F_, 4
	note C#, 4
	note F#, 4
	note D#, 8
	note C_, 4
	octave 3
	note G#, 4
	octave 4
	note C_, 4
	octave 3
	note G#, 4
	octave 4
	note C_, 4
	note D#, 4
	note F#, 4
	note F_, 4
	note C#, 12
	note F_, 4
	note C#, 4
	note F#, 4
	note D#, 8
	note C_, 4
	octave 3
	note G#, 4
	octave 4
	note C_, 4
	octave 3
	note G#, 4
	octave 4
	note C_, 4
	note D#, 4
	note G#, 4
	note F_, 4
	note C#, 12
	note G#, 4
	octave 5
	note C#, 4
	octave 4
	note G#, 4
	note F_, 1
	note D#, 1
	note C#, 2
	note F_, 4
	note F#, 4
	note D#, 8
	note G#, 4
	octave 5
	note C#, 4
	octave 4
	note G#, 4
	note F_, 1
	note D#, 1
	note C#, 2
	note F_, 4
	note D#, 4
	note F_, 8
	loopchannel 0, Music_Routes1_branch_9cdd
	endchannel


Music_Routes1_Ch4:: ; 9d24 (2:5d24)
	rest 8
	loopchannel 0, Music_Routes1_Ch4
	endchannel
