Music_TrainerBattle_Ch1:: ; 23099 (8:7099)
	tempo 0, 120
	stereopanning 119
	duty 1
	vibrato 6, 3, 4
	notetype 12, 10, 7

Music_TrainerBattle_Ch1_branch0::
	octave 3
	note E_, 16
	rest 12
	note C_, 4
	note E_, 16
	rest 12
	octave 2
	note B_, 4
	octave 3
	note D_, 16
	rest 10
	octave 2
	note B_, 2
	note A_, 2
	note E_, 2
	octave 3
	note C#, 16
	octave 2
	note A_, 12
	rest 4
	note A_, 16
	rest 14
	note G#, 1
	note A_, 1
	note B_, 16
	rest 16
	note A_, 2
	octave 3
	note E_, 2
	note C_, 1
	rest 1
	note E_, 1
	rest 1
	octave 2
	note A_, 1
	rest 1
	octave 3
	note E_, 1
	rest 1
	note C_, 1
	rest 1
	note E_, 1
	rest 3
	note E_, 1
	rest 1
	note C_, 1
	rest 1
	note E_, 1
	rest 3
	note E_, 1
	rest 1
	note C_, 1
	rest 1
	note E_, 1
	rest 1
	octave 2
	note G#, 2
	octave 3
	note E_, 2
	octave 2
	note B_, 1
	rest 1
	octave 3
	note E_, 1
	rest 3
	note E_, 1
	rest 1
	octave 2
	note B_, 1
	rest 1
	octave 3
	note E_, 1
	rest 3
	note E_, 1
	rest 1
	octave 2
	note B_, 1
	rest 1
	octave 3
	note E_, 1
	rest 1
	note G_, 1
	rest 1
	note F#, 1
	rest 1
	note D_, 1
	rest 1
	octave 2
	note A_, 1
	note F#, 1
	note G_, 2
	octave 3
	note D_, 2
	octave 2
	note B_, 1
	rest 1
	octave 3
	note D_, 1
	rest 3
	note D_, 1
	rest 1
	octave 2
	note B_, 1
	rest 1
	octave 3
	note D_, 1
	rest 1
	octave 2
	note G_, 2
	octave 3
	note D_, 2
	octave 2
	note B_, 1
	rest 1
	octave 3
	note D_, 1
	rest 1
	octave 2
	note G_, 1
	rest 1
	octave 3
	note D_, 1
	rest 1
	octave 2
	note B_, 1
	rest 1
	note E_, 2
	note F#, 2
	octave 3
	note C#, 2
	octave 2
	note A_, 1
	rest 1
	octave 3
	note C#, 1
	rest 3
	note C#, 1
	rest 1
	octave 2
	note A_, 1
	rest 1
	octave 3
	note C#, 1
	rest 1
	octave 2
	note A_, 12
	rest 4
	note F_, 1
	rest 1
	octave 3
	note C_, 1
	rest 1
	octave 2
	note A_, 1
	rest 1
	octave 3
	note C_, 1
	rest 1
	octave 2
	note F_, 1
	rest 1
	octave 3
	note C_, 1
	rest 1
	octave 2
	note A_, 1
	rest 1
	octave 3
	note C_, 1
	rest 3
	note C_, 1
	rest 1
	octave 2
	note A_, 1
	rest 1
	octave 3
	note C_, 1
	rest 1
	octave 2
	note F_, 1
	rest 1
	octave 3
	note C_, 1
	rest 1
	octave 2
	note A_, 1
	rest 1
	note G#, 1
	note A_, 1
	note G_, 1
	rest 1
	octave 3
	note D_, 1
	rest 1
	octave 2
	note B_, 1
	rest 1
	octave 3
	note D_, 1
	rest 1
	octave 2
	note G_, 1
	rest 1
	octave 3
	note D_, 1
	rest 1
	octave 2
	note B_, 1
	rest 1
	octave 3
	note D_, 1
	rest 3
	note D_, 1
	rest 1
	octave 2
	note B_, 1
	rest 1
	octave 3
	note D_, 1
	rest 1
	octave 2
	note G_, 1
	rest 1
	octave 3
	note D_, 1
	rest 1
	octave 2
	note B_, 1
	rest 1
	octave 3
	note D_, 1
	rest 1
	octave 2
	note A_, 1
	rest 1
	octave 3
	note E_, 1
	rest 1
	note C_, 1
	rest 1
	note E_, 1
	rest 1
	octave 2
	note A_, 1
	rest 1
	octave 3
	note E_, 1
	rest 1
	note C_, 1
	rest 1
	note E_, 1
	rest 1
	octave 2
	note A_, 1
	rest 1
	octave 3
	note E_, 1
	rest 1
	note C_, 1
	rest 1
	note E_, 1
	rest 1
	octave 2
	note A_, 1
	rest 1
	octave 3
	note E_, 1
	rest 1
	note C_, 1
	rest 1
	octave 2
	note G#, 1
	note A_, 1
	octave 3
	note C_, 4
	note C_, 1
	rest 1
	note E_, 1
	rest 1
	octave 2
	note A_, 1
	rest 1
	octave 3
	note E_, 1
	rest 1
	note C_, 1
	rest 1
	note E_, 1
	rest 1
	octave 2
	note A_, 1
	rest 1
	octave 3
	note E_, 1
	rest 1
	note C_, 1
	rest 1
	note E_, 1
	rest 1
	octave 2
	note A_, 1
	rest 1
	octave 3
	note E_, 1
	rest 1
	note C_, 1
	rest 1
	note E_, 1
	rest 1
	; measure 29
	callchannel Music_TrainerBattle_Ch1_branch1
	callchannel Music_TrainerBattle_Ch1_branch1
	callchannel Music_TrainerBattle_Ch1_branch2
	callchannel Music_TrainerBattle_Ch1_branch2
	callchannel Music_TrainerBattle_Ch1_branch1
	callchannel Music_TrainerBattle_Ch1_branch1
	callchannel Music_TrainerBattle_Ch1_branch2
	callchannel Music_TrainerBattle_Ch1_branch2
	callchannel Music_TrainerBattle_Ch1_branch1
	callchannel Music_TrainerBattle_Ch1_branch1
	callchannel Music_TrainerBattle_Ch1_branch2
	callchannel Music_TrainerBattle_Ch1_branch2
	callchannel Music_TrainerBattle_Ch1_branch1
	callchannel Music_TrainerBattle_Ch1_branch1
	callchannel Music_TrainerBattle_Ch1_branch2
	callchannel Music_TrainerBattle_Ch1_branch2
	loopchannel 0, Music_TrainerBattle_Ch1_branch0

Music_TrainerBattle_Ch1_branch1::
; played twice
	octave 3
	note C_, 3
	note C_, 3
	note C_, 2
	note C_, 1
	rest 1
	octave 2
	note A_, 1
	rest 1
	octave 3
	note C_, 1
	rest 1
	octave 2
	note A_, 1
	rest 1
	endchannel

Music_TrainerBattle_Ch1_branch2::
; played twice
	octave 3
	note D_, 3
	note D_, 3
	note D_, 2
	note D_, 1
	rest 1
	octave 2
	note G_, 1
	rest 1
	note B_, 1
	rest 1
	note G_, 1
	rest 1
	endchannel


Music_TrainerBattle_Ch2:: ; 231d8 (8:71d8)
	duty 1
	vibrato 6, 3, 4
	notetype 12, 10, 7

Music_TrainerBattle_Ch2_branch0::
	octave 3
	note A_, 16
	rest 12
	note E_, 4
	note G#, 16
	rest 12
	note E_, 4
	note G_, 16
	rest 10
	note F#, 2
	note D_, 2
	octave 2
	note A_, 2
	octave 3
	note E_, 16
	note C#, 12
	rest 4
	note D_, 16
	rest 14
	note C_, 1
	note D_, 1
	note E_, 14
	note F_, 1
	note E_, 1
	note D_, 12
	note B_, 1
	octave 4
	note D_, 1
	note A_, 1
	octave 5
	note C_, 1
	octave 3
	note A_, 16
	rest 16
	note G#, 16
	rest 12
	note E_, 4
	note G_, 16
	rest 10
	note F#, 2
	note D_, 2
	octave 2
	note A_, 2
	octave 3
	note E_, 16
	note C#, 12
	rest 4
	note D_, 16
	rest 14
	note C_, 1
	note D_, 1
	note E_, 14
	note F_, 1
	note E_, 1
	note D_, 2
	rest 14
	note A_, 16
	rest 14
	note E_, 1
	note D_, 1
	note E_, 2
	note E_, 1
	rest 13
	note E_, 2
	rest 14
	callchannel Music_TrainerBattle_Ch2_branch1
	callchannel Music_TrainerBattle_Ch2_branch1
	callchannel Music_TrainerBattle_Ch2_branch2
	callchannel Music_TrainerBattle_Ch2_branch2
	callchannel Music_TrainerBattle_Ch2_branch1
	callchannel Music_TrainerBattle_Ch2_branch1
	callchannel Music_TrainerBattle_Ch2_branch2
	callchannel Music_TrainerBattle_Ch2_branch2
	callchannel Music_TrainerBattle_Ch2_branch1
	callchannel Music_TrainerBattle_Ch2_branch1
	callchannel Music_TrainerBattle_Ch2_branch2
	callchannel Music_TrainerBattle_Ch2_branch2
	callchannel Music_TrainerBattle_Ch2_branch1
	callchannel Music_TrainerBattle_Ch2_branch1
	callchannel Music_TrainerBattle_Ch2_branch2
	callchannel Music_TrainerBattle_Ch2_branch2
	loopchannel 0, Music_TrainerBattle_Ch2_branch0

Music_TrainerBattle_Ch2_branch1::
; played twice
	octave 3
	note F_, 1
	rest 1
	octave 4
	note C_, 1
	rest 1
	octave 3
	note G_, 1
	rest 1
	octave 4
	note C_, 1
	rest 1
	octave 3
	note F_, 1
	rest 1
	octave 4
	note C_, 1
	rest 1
	octave 3
	note G_, 1
	rest 1
	octave 4
	note C_, 1
	rest 1
	endchannel

Music_TrainerBattle_Ch2_branch2::
; played twice
	octave 3
	note G_, 1
	rest 1
	octave 4
	note D_, 1
	rest 1
	octave 3
	note A_, 1
	rest 1
	octave 4
	note D_, 1
	rest 1
	octave 3
	note G_, 1
	rest 1
	octave 4
	note D_, 1
	rest 1
	octave 3
	note A_, 1
	rest 1
	octave 4
	note D_, 1
	rest 1
	endchannel


Music_TrainerBattle_Ch3:: ; 23290 (8:7290)
	vibrato 0, 0, 0
	notetype 12, 1, 3

Music_TrainerBattle_Ch3_branch0::
	octave 4
	note A_, 2
	callchannel Music_TrainerBattle_Ch3_branch1
	octave 4
	note A_, 2
	callchannel Music_TrainerBattle_Ch3_branch1
	rest 2
	callchannel Music_TrainerBattle_Ch3_branch1
	rest 2
	callchannel Music_TrainerBattle_Ch3_branch1
	octave 4
	note G#, 2
	octave 5
	note E_, 2
	octave 4
	note B_, 2
	octave 5
	note E_, 2
	rest 2
	note E_, 2
	octave 4
	note B_, 2
	octave 5
	note E_, 2
	rest 2
	note E_, 2
	octave 4
	note B_, 2
	octave 5
	note E_, 2
	octave 4
	note G#, 2
	octave 5
	note E_, 2
	octave 4
	note B_, 2
	note F#, 1
	note F#, 1
	note G_, 2
	callchannel Music_TrainerBattle_Ch3_branch2
	rest 2
	callchannel Music_TrainerBattle_Ch3_branch2
	octave 4
	note G_, 2
	octave 5
	callchannel Music_TrainerBattle_Ch3_branch2
	octave 4
	note G_, 2
	callchannel Music_TrainerBattle_Ch3_branch2
	octave 4
	note F#, 2
	octave 5
	note C#, 2
	octave 4
	note A_, 2
	octave 5
	note C#, 2
	rest 2
	note C#, 2
	octave 4
	note A_, 2
	octave 5
	note C#, 2
	octave 4
	note F#, 2
	note A_, 2
	octave 5
	note C#, 2
	note F_, 2
	note F#, 2
	note C#, 2
	octave 4
	note A_, 2
	note F#, 2
	note F_, 2
	octave 5
	note C_, 2
	octave 4
	note A_, 2
	octave 5
	note C_, 2
	octave 4
	note F_, 2
	octave 5
	note C_, 2
	octave 4
	note A_, 2
	octave 5
	note C_, 2
	rest 2
	note C_, 2
	octave 4
	note A_, 2
	octave 5
	note C_, 2
	octave 4
	note F_, 2
	octave 5
	note C_, 2
	octave 4
	note A_, 2
	octave 5
	note C_, 2
	octave 4
	note G_, 2
	callchannel Music_TrainerBattle_Ch3_branch2
	octave 4
	note G_, 2
	callchannel Music_TrainerBattle_Ch3_branch2
	rest 2
	callchannel Music_TrainerBattle_Ch3_branch2
	octave 4
	note G_, 2
	octave 5
	callchannel Music_TrainerBattle_Ch3_branch2
	octave 6
	note D_, 3
	note D_, 3
	note C_, 4
	note C_, 2
	octave 5
	note B_, 2
	octave 6
	note C_, 2
	note D_, 3
	note D_, 3
	note C_, 4
	note C_, 2
	octave 5
	note B_, 2
	octave 6
	note C_, 2
	note E_, 3
	note E_, 3
	octave 5
	note B_, 4
	note B_, 2
	note G#, 2
	note B_, 2
	octave 6
	note E_, 3
	note E_, 3
	octave 5
	note B_, 4
	note B_, 2
	octave 6
	note C_, 2
	octave 5
	note B_, 2
	octave 6
	note D_, 3
	octave 5
	note G_, 3
	note A_, 3
	note B_, 3
	octave 6
	note C_, 2
	note C#, 2
	note D_, 3
	octave 5
	note G_, 3
	note A_, 3
	note B_, 3
	octave 6
	note C_, 2
	octave 5
	note B_, 2
	octave 4
	note A_, 6
	octave 5
	note C#, 6
	note E_, 4
	octave 4
	note F#, 2
	note A_, 2
	octave 5
	note C#, 2
	note F_, 2
	note F#, 2
	note C#, 2
	octave 4
	note A_, 2
	note F#, 2
	octave 6
	note C_, 3
	note C_, 3
	callchannel Music_TrainerBattle_Ch3_branch3
	octave 6
	note C_, 3
	note C_, 3
	callchannel Music_TrainerBattle_Ch3_branch3
	octave 6
	note D_, 3
	note D_, 3
	callchannel Music_TrainerBattle_Ch3_branch3
	octave 6
	note D_, 3
	note D_, 3
	callchannel Music_TrainerBattle_Ch3_branch3
	octave 6
	note E_, 3
	octave 5
	note E_, 3
	octave 6
	note C_, 3
	octave 5
	note B_, 3
	note G_, 2
	note E_, 2
	octave 6
	note E_, 3
	octave 5
	note E_, 3
	octave 6
	note C_, 3
	octave 5
	note B_, 3
	note G_, 2
	note A_, 2
	octave 6
	note D_, 3
	octave 5
	note E_, 3
	octave 6
	note C_, 3
	octave 5
	note B_, 3
	note G_, 2
	note A_, 2
	octave 6
	note D_, 3
	octave 5
	note E_, 3
	octave 6
	note C_, 3
	octave 5
	note B_, 3
	note G_, 2
	note E_, 2
	rest 4
	octave 6
	note C_, 4
	note D_, 4
	note E_, 4
	note F_, 4
	note E_, 4
	note D_, 4
	note C_, 4
	rest 4
	note G_, 4
	note D_, 4
	note G_, 4
	note F_, 3
	note F_, 3
	note F_, 2
	note G_, 3
	note G_, 3
	note G_, 2
	rest 4
	octave 5
	note A_, 1
	note A#, 1
	note B_, 1
	octave 6
	note C_, 1
	octave 5
	note F_, 3
	note G_, 3
	note G#, 2
	note A_, 3
	note G_, 3
	note F_, 2
	octave 6
	note C_, 3
	note C#, 2
	note D_, 3
	note F_, 4
	note E_, 4
	note D_, 4
	note E_, 4
	note D_, 8
	rest 12
	octave 5
	note C_, 4
	note D_, 4
	note E_, 4
	note F_, 4
	note E_, 4
	note D_, 4
	note C_, 4
	rest 4
	note G_, 4
	note D_, 4
	note G_, 4
	note F_, 8
	note G_, 8
	note G_, 6
	note F_, 4
	note F_, 2
	note E_, 2
	note F_, 2
	note G_, 6
	note F_, 4
	note F_, 2
	note E_, 2
	note F_, 2
	note A_, 6
	note G_, 4
	note G_, 2
	note F_, 2
	note G_, 2
	octave 6
	note F_, 3
	note E_, 3
	note D#, 2
	note D_, 3
	note C#, 3
	note C_, 2
	loopchannel 0, Music_TrainerBattle_Ch3_branch0

Music_TrainerBattle_Ch3_branch1::
	octave 5
	note E_, 2
	note C_, 2
	note E_, 2
	endchannel

Music_TrainerBattle_Ch3_branch2::
	octave 5
	note D_, 2
	octave 4
	note B_, 2
	octave 5
	note D_, 2
	endchannel

Music_TrainerBattle_Ch3_branch3::
	octave 5
	note A_, 3
	note A_, 3
	note G_, 2
	note A_, 2
	endchannel