Music_Vermilion_Ch1:: ; b9eb (2:79eb)
	tempo 0, 160
	stereopanning 119
	duty 3
	vibrato 12, 3, 4
	notetype 12, 12, 5

Music_Vermilion_Channel1_Branch0
	callchannel Music_Vermilion_Channel1_Branch1
	callchannel Music_Vermilion_Channel1_Branch2
	callchannel Music_Vermilion_Channel1_Branch2
	callchannel Music_Vermilion_Channel1_Branch2
	loopchannel 0, Music_Vermilion_Channel1_Branch0

Music_Vermilion_Channel1_Branch1
	rest 16
	rest 16
	rest 16
	rest 16
	rest 16
	rest 16
	rest 16
	rest 16
	endchannel

Music_Vermilion_Channel1_Branch2::
	octave 4
	note F_, 1
	rest 3
	note F_, 1
	rest 1
	note F#, 1
	rest 3
	note F_, 1
	rest 1
	note D#, 1
	rest 1
	note C#, 1
	rest 1
	note D#, 1
	rest 1
	note G#, 1
	rest 3
	note G#, 1
	rest 9
	note A#, 1
	rest 3
	note A#, 1
	rest 1
	octave 5
	note C#, 1
	rest 3
	note C_, 1
	rest 1
	octave 4
	note A#, 1
	rest 1
	note G#, 1
	rest 1
	note F_, 1
	rest 11
	note D#, 1
	rest 1
	note F_, 1
	rest 1
	note F#, 1
	rest 3
	note F#, 1
	rest 1
	note F_, 1
	rest 3
	note D#, 1
	rest 1
	note C#, 1
	rest 1
	note D#, 1
	rest 1
	note D#, 1
	rest 11
	note D#, 1
	rest 1
	note F_, 1
	rest 1
	note F#, 1
	rest 3
	note F#, 1
	rest 1
	note F_, 1
	rest 3
	note D#, 1
	rest 1
	note G#, 1
	rest 1
	note G#, 1
	rest 1
	rest 16
	endchannel

Music_Vermilion_Ch2:: ; ba61 (2:7a61)
	duty 2
	vibrato 10, 2, 3
	notetype 12, 12, 5

Music_Vermilion_Channel2_Branch0::
	callchannel Music_Vermilion_Channel2_Branch1
	callchannel Music_Vermilion_Channel2_Branch1
	callchannel Music_Vermilion_Channel2_Branch1
	callchannel Music_Vermilion_Channel2_Branch1
	callchannel Music_Vermilion_Channel2_Branch1
	callchannel Music_Vermilion_Channel2_Branch1
	callchannel Music_Vermilion_Channel2_Branch2
	loopchannel 0, Music_Vermilion_Channel2_Branch0

Music_Vermilion_Channel2_Branch1::
	octave 2
	note C#, 1
	octave 1
	note G#, 1
	octave 2
	note G#, 1
	note C#, 1
	octave 3
	note D#, 1
	octave 2
	note G#, 1
	octave 3
	note F_, 1
	note D#, 1
	note G#, 1
	note F_, 1
	octave 2
	note G#, 1
	octave 3
	note G#, 1
	note D#, 1
	octave 2
	note G#, 1
	octave 3
	note C#, 1
	note D#, 1
	octave 1
	note B_, 1
	octave 3
	note C#, 1
	octave 2
	note G#, 1
	octave 1
	note B_, 1
	octave 3
	note D#, 1
	octave 2
	note G#, 1
	octave 3
	note F_, 1
	note D#, 1
	note A#, 1
	note F_, 1
	note G#, 1
	note A#, 1
	octave 2
	note G#, 1
	octave 3
	note G#, 1
	note C#, 1
	octave 2
	note G#, 1
	octave 1
	note A#, 1
	octave 3
	note C#, 1
	octave 2
	note F#, 1
	octave 1
	note A#, 1
	octave 3
	note C#, 1
	octave 2
	note F#, 1
	octave 3
	note G#, 1
	note C#, 1
	note F#, 1
	note G#, 1
	octave 2
	note G#, 1
	octave 3
	note F#, 1
	note D#, 1
	octave 2
	note G#, 1
	octave 3
	note C#, 1
	note D#, 1
	octave 1
	note A_, 1
	octave 3
	note C#, 1
	octave 2
	note G#, 1
	octave 1
	note A_, 1
	octave 3
	note F#, 1
	octave 2
	note G#, 1
	octave 3
	note C#, 1
	note F#, 1
	note D#, 1
	note C#, 1
	octave 1
	note G#, 1
	octave 3
	note D#, 1
	note F#, 1
	octave 1
	note G#, 1
	octave 2
	note G#, 1
	octave 1
	note A#, 1
	endchannel

Music_Vermilion_Channel2_Branch2::
	octave 3
	note G#, 1
	rest 3
	note G#, 1
	rest 1
	note A#, 1
	rest 3
	note G#, 1
	rest 1
	note F#, 1
	rest 1
	note F_, 1
	rest 1
	note F#, 1
	rest 1
	octave 4
	note C_, 1
	rest 3
	note C_, 1
	rest 9
	note C#, 1
	rest 3
	note C#, 1
	rest 1
	note F_, 1
	rest 3
	note D#, 1
	rest 1
	note C#, 1
	rest 1
	note C_, 1
	rest 1
	octave 3
	note G#, 1
	rest 11
	note F#, 1
	rest 1
	note G#, 1
	rest 1
	note A#, 1
	rest 3
	note A#, 1
	rest 1
	note G#, 1
	rest 3
	note F#, 1
	rest 1
	note F_, 1
	rest 1
	note F#, 1
	rest 1
	note F#, 1
	rest 11
	note F#, 1
	rest 1
	note G#, 1
	rest 1
	note A#, 1
	rest 3
	note A#, 1
	rest 1
	note G#, 1
	rest 3
	note F#, 1
	rest 1
	octave 4
	note D#, 1
	rest 1
	note D#, 1
	rest 1
	rest 16
	endchannel

Music_Vermilion_Ch3:: ; baa6 (2:7aa6)
	notetype 12, 1, 2

Music_Vermilion_Channel3_Branch0::
	callchannel Music_Vermilion_Channel3_Branch1
	callchannel Music_Vermilion_Channel3_Branch2
	callchannel Music_Vermilion_Channel3_Branch2
	callchannel Music_Vermilion_Channel3_Branch2
	loopchannel 0, Music_Vermilion_Channel3_Branch0

Music_Vermilion_Channel3_Branch1::
	rest 16
	rest 16
	rest 16
	rest 16
	octave 4
	note C#, 16
	octave 3
	note B_, 16
	note A#, 16
	note A_, 8
	note G#, 8
	endchannel

Music_Vermilion_Channel3_Branch2::
	rest 14
	octave 3
	note A#, 2
	note G#, 3
	octave 4
	note A#, 3
	note G#, 6
	rest 14
	octave 3
	note A#, 2
	note F_, 4
	octave 2
	note G#, 3
	octave 3
	note C#, 2
	rest 1
	note A#, 2
	note G#, 4
	rest 16
	rest 4
	octave 2
	note G#, 3
	octave 3
	note C#, 2
	rest 1
	note A#, 2
	note G#, 4
	rest 4
	note C#, 3
	note F#, 1
	rest 2
	octave 4
	note C#, 2
	rest 8
	octave 2
	note A_, 8
	note G#, 8
	endchannel

Music_Vermilion_Ch4:: ; bb0d (2:7b0d)
	dspeed 12

Music_Vermilion_Channel4_Branch0::
	callchannel Music_Vermilion_Channel4_Branch1
	callchannel Music_Vermilion_Channel4_Branch2
	callchannel Music_Vermilion_Channel4_Branch2
	loopchannel 0, Music_Vermilion_Channel4_Branch0

Music_Vermilion_Channel4_Branch1::
	rest 16
	rest 16
	rest 16
	rest 16
	rest 16
	rest 16
	rest 16
	rest 16
	rest 16
	rest 16
	rest 16
	rest 16
	rest 16
	rest 16
	rest 16
	rest 16
	endchannel

Music_Vermilion_Channel4_Branch2::
	rest 4
	dnote 1, mutedsnare2
	rest 7
	dnote 1, mutedsnare2
	rest 7
	dnote 1, mutedsnare2
	rest 7
	dnote 1, mutedsnare2
	rest 7
	dnote 1, mutedsnare2
	rest 7
	dnote 1, mutedsnare2
	rest 7
	dnote 1, mutedsnare2
	rest 7
	dnote 1, mutedsnare2
	rest 7
	dnote 1, mutedsnare2
	rest 7
	dnote 1, mutedsnare2
	rest 7
	dnote 1, mutedsnare2
	rest 7
	dnote 1, mutedsnare2
	rest 7
	dnote 1, mutedsnare2
	rest 7
	dnote 1, mutedsnare2
	rest 7
	dnote 1, mutedsnare2
	rest 11
	endchannel
