Music_WildBattle_Ch1:: ; 23099 (8:7099)
	tempo 0, 110
	stereopanning 119
	duty 1
	vibrato 6, 3, 4
	notetype 12, 10, 7

Music_WildBattle_Ch1_branch0::
	rest 2
	octave 3
	note D#, 1
	note F_, 1
	rest 2
	note D#, 1
	note F_, 1
	rest 2
	note D#, 1
	note F_, 1
	rest 2
	note D#, 1
	note F_, 1
	rest 2
	octave 2
	note A_, 1
	note A#, 1
	note B_, 1
	octave 3
	note C_, 1
	note C#, 1
	note D_, 1
	note D#, 1
	note E_, 1
	note F_, 1
	note F#, 1
	note G_, 1
	note G#, 1
	note A_, 1
	note A#, 1

Music_WildBattle_Ch1_branch1::
	octave 3
	note A#, 16
	note G#, 16
	octave 4
	note D#, 16
	note F_, 16
	octave 3
	note A#, 16
	note G#, 16
	octave 4
	note C#, 16
	note C_, 16
	octave 3
	note F#, 2
	rest 4
	note F#, 10
	note C#, 2
	rest 4
	note C#, 10
	note F#, 2
	rest 4
	note F#, 10
	note C#, 2
	rest 4
	note C#, 2
	note F#, 2
	note F_, 2
	note D#, 2
	note C#, 2
	note D#, 2
	rest 2
	note F#, 2
	note D#, 10
	octave 2
	note A#, 2
	rest 2
	octave 3
	note C#, 2
	octave 2
	note A#, 10
	octave 3
	note D#, 2
	rest 2
	note F#, 2
	note D#, 4
	note F_, 2
	note F#, 2
	note G#, 2
	note A#, 16
	note D#, 2
	note E_, 1
	note F_, 1
	note F#, 1
	note G_, 1
	note G#, 1
	note A_, 1
	note A#, 2
	note A_, 1
	note G#, 1
	note G_, 1
	note F#, 1
	note F_, 1
	note E_, 1
	note D#, 2
	note E_, 1
	note F_, 1
	note F#, 1
	note G_, 1
	note G#, 1
	note A_, 1
	note A#, 2
	note A_, 1
	note G#, 1
	note G_, 1
	note F#, 1
	note F_, 1
	note E_, 1
	note A#, 2
	note A_, 1
	note G#, 1
	note G_, 1
	note G#, 1
	note A_, 1
	note A#, 1
	note B_, 1
	octave 4
	note C_, 1
	note C#, 1
	note D_, 1
	note D#, 2
	note D_, 1
	note C#, 1
	note C_, 1
	octave 3
	note B_, 1
	note A#, 1
	note A_, 1
	note G#, 1
	note G_, 1
	note G#, 1
	note A_, 1
	note A#, 2
	note A_, 1
	note G#, 1
	note G_, 1
	note F#, 1
	note F_, 1
	note E_, 1
	note C#, 4
	note A#, 4
	note G#, 4
	note A#, 4
	note C#, 4
	note A#, 4
	note G#, 4
	note A#, 4
	note C#, 4
	note G#, 4
	note F_, 4
	note G#, 4
	note C#, 4
	note G#, 4
	note F_, 3
	note F#, 1
	note G_, 1
	note G#, 1
	note A#, 1
	octave 4
	note C_, 1
	note G#, 16
	rest 16
	note D#, 1
	rest 5
	note C#, 1
	rest 11
	note D#, 1
	rest 5
	note C#, 1
	rest 3
	note C#, 1
	rest 5
	octave 3
	note A#, 1
	rest 5
	note B_, 1
	rest 3
	note A#, 1
	rest 3
	note G#, 1
	rest 3
	note A#, 1
	rest 3
	note B_, 1
	rest 3
	note A#, 1
	rest 3
	octave 4
	note D#, 1
	rest 5
	note C#, 1
	rest 11
	note D#, 1
	rest 5
	note C#, 1
	rest 3
	note C#, 1
	rest 5
	octave 3
	note A#, 1
	rest 5
	note B_, 1
	rest 3
	note A#, 1
	rest 3
	note G#, 1
	rest 3
	note A#, 1
	rest 3
	note B_, 1
	rest 3
	note A#, 1
	rest 3
	note A#, 12
	octave 4
	note C#, 4
	octave 3
	note A#, 10
	note A_, 2
	note G#, 2
	note G_, 2
	note B_, 2
	octave 4
	note C#, 2
	note D_, 2
	note D#, 6
	note C#, 4
	note D#, 16
	octave 3
	note A#, 12
	octave 4
	note C#, 4
	octave 3
	note A#, 10
	note A_, 2
	note G#, 2
	note G_, 2
	note B_, 2
	octave 4
	note C#, 2
	note F#, 2
	note G#, 6
	note F#, 3
	note G_, 1
	note G#, 10
	note F#, 1
	rest 1
	note F_, 1
	rest 1
	note E_, 1
	rest 1
	loopchannel 0, Music_WildBattle_Ch1_branch1

Music_WildBattle_Ch2:: ; 231d8 (8:71d8)
	duty 2
	vibrato 6, 3, 4
	notetype 12, 10, 7

Music_WildBattle_Ch2_branch0::
	octave 4
	note D#, 1
	rest 3
	note D#, 1
	rest 3
	note D#, 1
	rest 3
	note D#, 1
	rest 3
	note D#, 1
	rest 3
	octave 3
	note D#, 1
	note E_, 1
	note F_, 1
	note F#, 1
	note G_, 1
	note G#, 1
	note A_, 1
	note A#, 1
	note B_, 1
	octave 4
	note C_, 1
	note C#, 1
	note D_, 1

Music_WildBattle_Ch2_branch1::
	octave 4
	note D#, 16
	note F_, 16
	note F#, 16
	note G#, 12
	note A#, 1
	note G#, 1
	note F#, 1
	note F_, 1
	note D#, 16
	note F_, 16
	note G#, 16
	note A#, 16
	note D#, 2
	rest 2
	note F#, 2
	note D#, 10
	octave 3
	note A#, 2
	rest 2
	octave 4
	note C#, 2
	octave 3
	note A#, 10
	octave 4
	note D#, 2
	rest 2
	note F#, 2
	note D#, 10
	octave 3
	note A#, 2
	rest 2
	octave 4
	note C#, 2
	octave 3
	note A#, 4
	note G#, 2
	note F#, 2
	note F_, 2
	note F#, 2
	rest 4
	note A#, 2
	octave 4
	note F_, 2
	note D#, 2
	note F_, 2
	note D#, 2
	octave 3
	note A#, 2
	octave 4
	note C#, 2
	octave 3
	note G#, 2
	note A#, 2
	octave 4
	note D#, 2
	note C#, 2
	octave 3
	note A#, 2
	note G#, 2
	note F#, 2
	rest 4
	note A#, 2
	octave 4
	note F_, 2
	note D#, 2
	note F_, 2
	note D#, 2
	octave 3
	note A#, 2
	octave 4
	note C#, 2
	octave 3
	note G#, 2
	note A#, 2
	octave 4
	note F_, 2
	note C#, 2
	octave 3
	note A#, 2
	octave 4
	note C#, 2
	octave 3
	note F#, 2
	rest 4
	note A#, 2
	octave 4
	note F_, 2
	note D#, 2
	note F_, 2
	note D#, 2
	octave 3
	note A#, 2
	octave 4
	note C#, 2
	octave 3
	note G#, 2
	note A#, 2
	octave 4
	note D#, 2
	note C#, 2
	octave 3
	note A#, 2
	note G#, 2
	note F#, 2
	rest 4
	note A#, 2
	octave 4
	note F_, 2
	note D#, 2
	note F_, 2
	note D#, 2
	octave 3
	note A#, 2
	octave 4
	note C#, 2
	octave 3
	note G#, 2
	note A#, 2
	octave 4
	note F_, 2
	note C#, 2
	octave 3
	note A#, 2
	octave 4
	note C#, 2
	octave 3
	note F_, 2
	rest 4
	octave 4
	note C#, 2
	note C_, 2
	note C#, 2
	octave 3
	note A#, 2
	rest 4
	octave 4
	note C#, 2
	note C_, 2
	note C#, 2
	octave 3
	note A#, 2
	note G#, 2
	rest 4
	note F_, 2
	rest 4
	octave 4
	note C#, 2
	note C_, 2
	note C#, 2
	note F_, 2
	rest 4
	note C#, 2
	note C_, 2
	note C#, 2
	note F_, 2
	rest 2
	note G#, 2
	rest 2
	note D#, 16
	rest 16
	note G#, 1
	rest 5
	note G#, 1
	rest 11
	note G#, 1
	rest 5
	note F#, 1
	rest 3
	note G#, 1
	rest 5
	note F#, 1
	rest 5
	note F#, 1
	rest 3
	note C#, 1
	rest 3
	note F#, 1
	rest 3
	note G#, 1
	rest 3
	note F#, 1
	rest 3
	note C#, 1
	rest 3
	note G#, 1
	rest 5
	note G#, 1
	rest 11
	note G#, 1
	rest 5
	note F#, 1
	rest 3
	note G#, 1
	rest 5
	note F#, 1
	rest 5
	note F#, 1
	rest 3
	note C#, 1
	rest 3
	note F#, 1
	rest 3
	note G#, 1
	rest 3
	note F#, 1
	rest 3
	note C#, 1
	rest 3
	note D#, 12
	note F#, 4
	note D#, 12
	note F#, 4
	note G#, 12
	note B_, 4
	note G#, 16
	note D#, 12
	note F#, 4
	note D#, 12
	note F#, 4
	note G#, 2
	note B_, 2
	octave 5
	note C#, 2
	note D#, 6
	note C#, 3
	note D_, 1
	note D#, 10
	note C#, 1
	rest 1
	note C_, 1
	rest 1
	octave 4
	note B_, 1
	rest 1
	loopchannel 0, Music_WildBattle_Ch2_branch1

Music_WildBattle_Ch3:: ; 23290 (8:7290)
	vibrato 0, 0, 0
	notetype 12, 1, 3

Music_WildBattle_Ch3_branch0::
	octave 5
	note F#, 1
	rest 3
	note F#, 1
	rest 3
	note G#, 1
	rest 3
	note G#, 1
	rest 3
	note F#, 1
	rest 7
	octave 4
	note D#, 1
	note E_, 1
	note F_, 1
	note F#, 1
	note G_, 1
	note G#, 1
	note A_, 1
	note A#, 1

Music_WildBattle_Ch3_branch1::
	octave 3
	note D#, 2
	note F#, 2
	note D#, 2
	note F#, 2
	note D#, 2
	note F#, 2
	note D#, 2
	note F#, 2
	note C#, 2
	note F#, 2
	note C#, 2
	note F#, 2
	note C#, 2
	note F#, 2
	note C#, 2
	note F#, 2
	note D#, 2
	note F#, 2
	note D#, 2
	note F#, 2
	note D#, 2
	note F#, 2
	note D#, 2
	note F#, 2
	note D#, 2
	note G#, 2
	note D#, 2
	note G#, 2
	note D#, 2
	note G#, 2
	note D#, 2
	note G#, 2
	note D#, 2
	note F#, 2
	note D#, 2
	note F#, 2
	note D#, 2
	note F#, 2
	note D#, 2
	note F#, 2
	note C#, 2
	note F#, 2
	note C#, 2
	note F#, 2
	note C#, 2
	note F#, 2
	note C#, 2
	note F#, 2
	note D#, 2
	note F#, 2
	note D#, 2
	note F#, 2
	note D#, 2
	note F#, 2
	note D#, 2
	note F#, 2
	note D#, 2
	note G#, 2
	note D#, 2
	note G#, 2
	note D#, 2
	note G#, 2
	note D#, 2
	note G#, 2
	note D#, 2
	note F#, 2
	note D#, 2
	note G#, 2
	note A#, 2
	note G#, 2
	note F#, 2
	note F_, 2
	note C#, 2
	note F_, 2
	note C#, 2
	note F#, 2
	note G#, 2
	note F#, 2
	note F_, 2
	note F#, 2
	note D#, 2
	note F#, 2
	note D#, 2
	note G#, 2
	note A#, 2
	note G#, 2
	note F#, 2
	note F_, 2
	note C#, 2
	note F_, 2
	note C#, 2
	note F#, 2
	note G#, 2
	note F#, 2
	note F_, 2
	note F#, 2
	note D#, 2
	note F#, 2
	note D#, 2
	note G#, 2
	note A#, 2
	note G#, 2
	note F#, 2
	note F_, 2
	note C#, 2
	note F_, 2
	note C#, 2
	note F#, 2
	note G#, 2
	note F#, 2
	note F_, 2
	note F#, 2
	note D#, 2
	note F#, 2
	note D#, 2
	note G#, 2
	note A#, 2
	note G#, 2
	note F#, 2
	note F_, 2
	note C#, 2
	note F_, 2
	note C#, 2
	note F#, 2
	note G#, 2
	note F#, 2
	note F_, 2
	note F#, 2
	note D#, 2
	note F#, 2
	note D#, 2
	note F#, 2
	note D#, 2
	note F#, 2
	note D#, 2
	note F#, 2
	note C#, 2
	note F#, 2
	note C#, 2
	note F#, 2
	note C#, 2
	note F#, 2
	note C#, 2
	note F#, 2
	note D#, 2
	note F#, 2
	note D#, 2
	note F#, 2
	note D#, 2
	note F#, 2
	note D#, 2
	note F#, 2
	note D#, 2
	note G#, 2
	note D#, 2
	note G#, 2
	note D#, 2
	note G#, 2
	note D#, 2
	note G#, 2
	note C#, 2
	note F_, 2
	note C#, 2
	note F_, 2
	note C#, 2
	note F_, 2
	note C#, 2
	note F_, 2
	octave 2
	note A#, 2
	octave 3
	note F_, 2
	octave 2
	note A#, 2
	octave 3
	note F_, 2
	octave 2
	note A#, 2
	octave 3
	note F_, 2
	octave 2
	note A#, 2
	octave 3
	note F_, 2
	note C#, 2
	note F_, 2
	note C#, 2
	note F_, 2
	note C#, 2
	note F_, 2
	note C#, 2
	note F_, 2
	note C#, 2
	note G#, 2
	note C#, 2
	note G#, 2
	note C#, 2
	note G#, 2
	note C#, 2
	note G#, 2
	note D#, 2
	note F#, 2
	note D#, 2
	note F#, 2
	note D#, 2
	note F#, 2
	note D#, 2
	note F#, 2
	note D#, 2
	note F#, 2
	note D#, 2
	note F#, 2
	note D#, 2
	note F#, 2
	note D#, 2
	note F#, 2
	rest 2
	note D#, 1
	rest 1
	note D#, 1
	rest 3
	note D#, 1
	rest 1
	note D#, 1
	rest 1
	note A#, 1
	note G#, 1
	note F#, 1
	note F_, 1
	note D#, 1
	rest 3
	note D#, 1
	rest 1
	note D#, 1
	rest 3
	note D#, 1
	rest 2
	note G#, 1
	note F#, 1
	note D#, 1
	note C#, 1
	rest 1
	note F#, 1
	rest 1
	note F#, 1
	rest 1
	note C#, 1
	rest 1
	note F#, 1
	rest 1
	note F#, 1
	rest 1
	note C#, 1
	rest 1
	note F#, 1
	note A#, 1
	note F#, 1
	note D#, 1
	note C#, 1
	note D#, 1
	note F#, 1
	note A#, 1
	note F#, 1
	note D#, 1
	note C#, 1
	rest 1
	note F#, 1
	rest 1
	note F#, 1
	rest 1
	note F_, 1
	rest 3
	note D#, 1
	rest 1
	note D#, 1
	rest 3
	note D#, 1
	rest 1
	note D#, 1
	rest 1
	note A#, 1
	note G#, 1
	note F#, 1
	note F_, 1
	note D#, 1
	rest 3
	note D#, 1
	rest 1
	note D#, 1
	rest 3
	note D#, 1
	rest 2
	note G#, 1
	note F#, 1
	note D#, 1
	note C#, 1
	rest 1
	note F#, 1
	rest 1
	note F#, 1
	rest 1
	note C#, 1
	rest 1
	note F#, 1
	rest 1
	note F#, 1
	rest 1
	note C#, 1
	rest 1
	note F#, 1
	note A#, 1
	note F#, 1
	note D#, 1
	note C#, 1
	note D#, 1
	note F#, 1
	note A#, 1
	note F#, 1
	note D#, 1
	note C#, 1
	rest 1
	note F#, 1
	rest 1
	note F#, 1
	rest 1
	note F_, 1
	rest 1
	note D#, 2
	note F#, 2
	note D#, 2
	note F#, 2
	note G#, 2
	note F#, 2
	note D#, 2
	note C#, 2
	note D#, 2
	note F#, 2
	note D#, 2
	note F#, 2
	note G#, 2
	note F#, 2
	note D#, 2
	note C#, 2
	note D#, 2
	note G#, 2
	note D#, 2
	note G#, 2
	note B_, 2
	note A#, 2
	note F#, 2
	note D#, 2
	note D#, 2
	note G#, 2
	note D#, 2
	note G#, 2
	note B_, 2
	note A#, 2
	note F#, 2
	note D#, 2
	note D#, 2
	note F#, 2
	note D#, 2
	note F#, 2
	note G#, 2
	note F#, 2
	note D#, 2
	note C#, 2
	note D#, 2
	note F#, 2
	note D#, 2
	note F#, 2
	note G#, 2
	note F#, 2
	note D#, 2
	note C#, 2
	note D#, 2
	note G#, 2
	note D#, 2
	note G#, 2
	note B_, 2
	note A#, 2
	note F#, 2
	note D#, 2
	note D#, 2
	note G#, 2
	note D#, 2
	note G#, 2
	note B_, 2
	note A#, 2
	note F#, 2
	note D#, 2
	loopchannel 0, Music_WildBattle_Ch3_branch1
